<svg width="88" height="88" viewBox="0 0 88 88" fill="none" xmlns="http://www.w3.org/2000/svg">
<g clip-path="url(#clip0_1160_37)">
<path d="M2.39772 30.0476C2.53888 30.0465 2.68005 30.0454 2.82549 30.0442C3.29379 30.0408 3.76208 30.0388 4.2304 30.0371C4.39019 30.0364 4.54998 30.0357 4.71461 30.035C5.56033 30.0314 6.40604 30.0289 7.25176 30.0273C8.12566 30.0254 8.99949 30.0195 9.87336 30.0127C10.545 30.0082 11.2166 30.0068 11.8882 30.0061C12.2104 30.0053 12.5325 30.0033 12.8547 30.0001C13.3056 29.9959 13.7564 29.9961 14.2074 29.9973C14.3404 29.9951 14.4734 29.9929 14.6104 29.9906C15.2487 29.9968 15.6071 30.0565 16.1491 30.4054C16.729 31.0007 16.7394 31.4634 16.733 32.2675C16.6352 32.8894 16.302 33.1512 15.8125 33.5156C15.2229 33.7121 14.7716 33.7081 14.1497 33.707C14.0339 33.707 13.9182 33.707 13.7989 33.707C13.4167 33.7069 13.0345 33.7056 12.6523 33.7042C12.3871 33.7039 12.122 33.7037 11.8568 33.7035C11.1592 33.7028 10.4615 33.7011 9.7639 33.6992C9.05192 33.6975 8.33993 33.6967 7.62795 33.6958C6.23113 33.694 4.83431 33.6911 3.43749 33.6874C3.4522 35.3105 3.46858 36.9334 3.48691 38.5564C3.49538 39.3106 3.50334 40.0648 3.51 40.819C3.54658 45.0971 3.54658 45.0971 3.76445 49.369C3.77726 49.547 3.79007 49.725 3.80326 49.9084C4.41305 57.3277 7.86905 64.0524 12.8906 69.4374C13.0774 69.6412 13.0774 69.6412 13.2679 69.849C14.43 71.0682 15.7357 72.1076 17.1083 73.0814C17.3949 73.2909 17.6738 73.511 17.945 73.74C19.5244 74.9716 20.8896 74.9624 22.8245 74.9435C23.1465 74.9454 23.4686 74.9478 23.7907 74.9508C24.6601 74.957 25.5292 74.9546 26.3986 74.9503C27.3115 74.9468 28.2244 74.95 29.1373 74.9522C30.67 74.9547 32.2025 74.9514 33.7352 74.9448C35.5031 74.9373 37.2709 74.9398 39.0389 74.9473C40.5611 74.9536 42.0833 74.9545 43.6055 74.9509C44.5128 74.9487 45.42 74.9484 46.3272 74.953C47.1806 74.957 48.0336 74.9542 48.8869 74.9462C49.1987 74.9444 49.5105 74.9449 49.8222 74.948C51.8632 74.9661 53.0549 74.7503 54.6562 73.3906C54.8611 73.2412 55.0668 73.093 55.2739 72.9468C56.5659 71.9552 57.7737 70.9039 58.9531 69.7812C59.0832 69.6622 59.2132 69.5432 59.3472 69.4207C65.7354 63.3815 68.3589 54.5024 68.6027 45.9689C68.6486 44.105 68.6649 42.2404 68.6814 40.376C68.6884 39.6187 68.6971 38.8614 68.7057 38.1042C68.7221 36.6319 68.7366 35.1597 68.75 33.6874C68.475 33.6882 68.475 33.6882 68.1945 33.6889C63.7363 33.7003 59.278 33.7088 54.8198 33.7142C52.6638 33.7168 50.5078 33.7204 48.3518 33.7263C46.4729 33.7315 44.5939 33.7348 42.7149 33.736C41.7199 33.7366 40.7248 33.7382 39.7298 33.742C38.7933 33.7455 37.8569 33.7465 36.9205 33.7458C36.5767 33.7459 36.2329 33.7469 35.8891 33.7489C35.4198 33.7515 34.9505 33.7509 34.4812 33.7495C34.2771 33.7517 34.2771 33.7517 34.0688 33.754C33.246 33.7473 32.6799 33.6296 31.9687 33.1718C31.5083 32.4811 31.5053 31.9212 31.625 31.1093C31.9333 30.616 32.1376 30.3374 32.6562 30.0781C33.1566 30.0601 33.6529 30.0527 34.1534 30.0528C34.3103 30.0521 34.4672 30.0515 34.6289 30.0509C35.1578 30.049 35.6868 30.0483 36.2158 30.0476C36.5938 30.0466 36.9717 30.0454 37.3497 30.0442C38.3788 30.0412 39.4079 30.0394 40.4371 30.038C41.0795 30.0371 41.722 30.0361 42.3644 30.035C44.2577 30.0319 46.151 30.0294 48.0443 30.0281C48.3908 30.0278 48.7374 30.0276 49.0839 30.0273C49.256 30.0272 49.256 30.0272 49.4316 30.0271C51.2904 30.0257 53.1492 30.0213 55.0081 30.0157C56.9159 30.01 58.8237 30.007 60.7316 30.0064C61.803 30.006 62.8744 30.0044 63.9458 30.0001C64.9535 29.9961 65.9612 29.9954 66.9689 29.9972C67.3391 29.9972 67.7093 29.9962 68.0795 29.9938C68.5842 29.9908 69.0888 29.992 69.5936 29.9942C69.8142 29.9914 69.8142 29.9914 70.0392 29.9885C70.7328 29.9961 71.073 30.0253 71.6729 30.4056C72.2172 30.9773 72.2082 31.3095 72.2043 32.0828C72.2037 32.2756 72.2032 32.4683 72.2026 32.6669C72.2012 32.869 72.1997 33.0711 72.1982 33.2792C72.1975 33.4826 72.1967 33.686 72.1959 33.8956C72.1939 34.3991 72.191 34.9027 72.1875 35.4062C72.3682 35.4047 72.549 35.4031 72.7352 35.4016C74.4396 35.3876 76.1441 35.3773 77.8485 35.3706C78.7248 35.367 79.601 35.3621 80.4773 35.3543C81.3231 35.3469 82.1689 35.3427 83.0148 35.341C83.3373 35.3397 83.6598 35.3372 83.9822 35.3335C84.4344 35.3285 84.8865 35.3278 85.3387 35.3281C85.538 35.3244 85.5381 35.3244 85.7414 35.3207C86.6336 35.3274 87.1428 35.5263 87.8281 36.0937C88.1024 36.6423 88.0268 37.2371 88.0277 37.8398C88.0285 37.9849 88.0294 38.13 88.0303 38.2795C88.0328 38.7618 88.0339 39.2442 88.0349 39.7266C88.0359 40.0629 88.0369 40.3992 88.0379 40.7354C88.0397 41.4427 88.0407 42.15 88.0413 42.8573C88.0422 43.7572 88.0463 44.6571 88.0512 45.557C88.0545 46.2532 88.0553 46.9493 88.0556 47.6455C88.0561 47.9768 88.0575 48.3081 88.0598 48.6393C88.09 53.3754 86.8578 57.6303 83.4762 61.0767C83.3242 61.2267 83.1722 61.3767 83.0156 61.5312C82.8884 61.6581 82.7613 61.7851 82.6302 61.9159C78.9664 65.3717 74.2984 66.2447 69.459 66.1933C69.1718 66.1916 68.8847 66.19 68.5976 66.1886C67.9036 66.1849 67.2096 66.179 66.5156 66.1718C66.44 66.3704 66.44 66.3704 66.3628 66.573C65.0723 69.6696 61.6441 72.6755 59.125 74.7656C59.3276 74.7658 59.5303 74.7661 59.7391 74.7663C61.6485 74.7692 63.5579 74.7765 65.4672 74.7883C66.4489 74.7942 67.4305 74.7985 68.4122 74.7992C69.3595 74.7999 70.3067 74.8048 71.2539 74.8126C71.6154 74.8148 71.9769 74.8155 72.3384 74.8148C72.8446 74.8139 73.3505 74.8184 73.8567 74.8241C74.0811 74.8219 74.0811 74.8219 74.31 74.8196C75.0565 74.8338 75.3643 74.8698 75.9762 75.3359C76.714 76.3471 76.4003 77.9058 76.2366 79.1007C75.6046 82.0541 73.8093 84.5526 71.365 86.2859C69.1391 87.6518 67.0732 88.0524 64.5079 88.0448C64.2712 88.0453 64.0346 88.0459 63.7979 88.0467C63.1508 88.0485 62.5038 88.0481 61.8568 88.0474C61.1576 88.047 60.4585 88.0485 59.7594 88.0498C58.391 88.052 57.0225 88.0523 55.6541 88.0519C54.5414 88.0516 53.4288 88.0519 52.3161 88.0526C52.0783 88.0528 52.0783 88.0528 51.8357 88.0529C51.5137 88.0532 51.1916 88.0534 50.8696 88.0536C47.8508 88.0554 44.8321 88.0551 41.8134 88.054C39.0541 88.0531 36.2948 88.0551 33.5355 88.0583C30.6998 88.0617 27.8641 88.0631 25.0284 88.0624C23.4374 88.0621 21.8463 88.0625 20.2553 88.065C18.9007 88.067 17.5462 88.0673 16.1916 88.0652C15.501 88.0642 14.8105 88.064 14.12 88.066C13.4867 88.0679 12.8535 88.0674 12.2202 88.065C11.885 88.0643 11.5498 88.0661 11.2146 88.0681C7.95666 88.0482 5.2333 86.8477 2.92186 84.5624C1.0097 82.4381 0.0108964 79.9626 -0.0752071 77.1289C-0.0811615 77.0109 -0.0871158 76.8929 -0.0932506 76.7714C-0.0983316 76.1412 -0.0303086 75.8357 0.359566 75.3348C0.978995 74.8423 1.29286 74.8283 2.07713 74.8241C2.19628 74.8223 2.31543 74.8205 2.43819 74.8186C2.82978 74.8137 3.22111 74.8148 3.61272 74.8159C3.88509 74.8137 4.15746 74.811 4.42983 74.8081C5.14499 74.8012 5.86008 74.7994 6.57528 74.7988C7.30575 74.7972 8.03617 74.7907 8.76662 74.7847C10.1986 74.7736 11.6305 74.7679 13.0625 74.7656C12.9891 74.6972 12.9157 74.6288 12.8401 74.5583C12.5033 74.2443 12.1666 73.9302 11.8298 73.6162C11.7144 73.5086 11.599 73.401 11.4801 73.2902C5.03579 67.2786 0.337539 58.7089 -0.0175699 49.7442C-0.0257899 49.2541 -0.0291131 48.7643 -0.030434 48.2742C-0.0315634 48.0892 -0.0326928 47.9043 -0.0338565 47.7138C-0.0372218 47.1069 -0.0392456 46.5001 -0.0409664 45.8933C-0.0416668 45.6853 -0.0423673 45.4773 -0.043089 45.263C-0.0466614 44.1643 -0.0491262 43.0656 -0.0507434 41.9669C-0.0526534 40.832 -0.0585791 39.6971 -0.0653823 38.5622C-0.0698676 37.6887 -0.0713143 36.8153 -0.0719324 35.9418C-0.0727705 35.5232 -0.0747714 35.1046 -0.0779546 34.6861C-0.0821252 34.1019 -0.0819851 33.5179 -0.080788 32.9336C-0.0829897 32.7608 -0.0851914 32.5879 -0.0874599 32.4098C-0.0818203 31.6562 -0.0739427 31.2297 0.327302 30.5764C0.979908 29.9849 1.55603 30.0506 2.39772 30.0476ZM72.1875 39.0156C72.1875 40.0932 72.1875 41.1709 72.1875 42.2812C72.4173 42.2837 72.6471 42.2862 72.8838 42.2888C73.7375 42.2988 74.5911 42.312 75.4448 42.3263C75.814 42.332 76.1833 42.3368 76.5526 42.3407C77.0838 42.3465 77.6149 42.3555 78.146 42.3651C78.3108 42.3662 78.4755 42.3673 78.6453 42.3684C79.4889 42.387 80.1038 42.4057 80.7812 42.9687C80.9805 43.3673 80.979 43.6081 80.9863 44.0521C80.989 44.2055 80.9918 44.3589 80.9946 44.5169C81.0023 45.2273 81.0093 45.9377 81.0133 46.6481C81.0161 47.02 81.0208 47.3918 81.0274 47.7636C81.0814 50.816 80.8868 53.2313 78.8906 55.6874C78.7347 55.8991 78.7347 55.8991 78.5757 56.1151C76.8906 58.0674 74.3491 58.9691 71.8498 59.1834C71.218 59.2288 70.5858 59.2648 69.9531 59.2968C69.7519 59.7763 69.5515 60.2562 69.3516 60.7363C69.2942 60.8728 69.2368 61.0092 69.1777 61.1498C69.1234 61.2806 69.0691 61.4113 69.0132 61.546C68.9628 61.6666 68.9124 61.7872 68.8604 61.9115C68.7306 62.2182 68.7306 62.2182 68.75 62.5624C73.2181 62.6829 76.8937 62.0845 80.3952 59.0598C83.2816 56.3144 84.4756 52.8393 84.5774 48.9272C84.5822 48.292 84.5819 47.657 84.5793 47.0219C84.5791 46.8177 84.5789 46.6135 84.5788 46.4031C84.5779 45.6486 84.5755 44.8941 84.5732 44.1396C84.5679 41.6032 84.5679 41.6032 84.5625 39.0156C80.4787 39.0156 76.395 39.0156 72.1875 39.0156ZM72.1875 45.8906C72.1733 46.5074 72.1591 47.1242 72.1445 47.7597C72.069 50.093 71.7288 52.3597 71.3281 54.6562C71.2706 54.9999 71.2132 55.3436 71.1562 55.6874C72.8757 55.6807 74.2963 55.1763 75.6142 54.0546C75.7312 53.9128 75.8482 53.771 75.9687 53.6249C76.1141 53.4725 76.2594 53.3201 76.4092 53.163C77.7111 51.5654 77.7156 49.5661 77.6982 47.6093C77.6947 47.0421 77.6911 46.4749 77.6875 45.8906C75.8725 45.8906 74.0575 45.8906 72.1875 45.8906ZM3.78124 78.3749C4.10718 80.3306 5.15854 81.7899 6.70311 83.0156C8.89532 84.4165 11.0716 84.6159 13.6332 84.6061C13.8525 84.6066 14.0718 84.6072 14.2978 84.6077C14.8998 84.6091 15.5019 84.6085 16.1039 84.6074C16.7558 84.6066 17.4077 84.6078 18.0596 84.6088C19.334 84.6103 20.6084 84.6099 21.8829 84.609C22.9192 84.6082 23.9556 84.6081 24.992 84.6084C25.2138 84.6085 25.2138 84.6085 25.4401 84.6086C25.7406 84.6087 26.0411 84.6088 26.3416 84.6089C29.1547 84.6099 31.9678 84.6088 34.781 84.6069C37.1913 84.6054 39.6016 84.6057 42.0118 84.6073C44.8154 84.6091 47.6189 84.6098 50.4225 84.6088C50.7218 84.6087 51.0212 84.6086 51.3205 84.6084C51.5414 84.6084 51.5414 84.6084 51.7667 84.6083C52.801 84.608 53.8353 84.6085 54.8697 84.6093C56.1313 84.6103 57.3929 84.61 58.6546 84.6082C59.2975 84.6073 59.9403 84.6069 60.5832 84.608C61.2819 84.6093 61.9806 84.6078 62.6793 84.6061C62.9802 84.6072 62.9802 84.6072 63.2872 84.6084C66.0641 84.5953 68.4375 84.1687 70.5439 82.2314C71.445 81.2633 72.5312 79.7357 72.5312 78.3749C49.8437 78.3749 27.1562 78.3749 3.78124 78.3749Z" fill="black"/>
<path d="M45.5469 3.78135C46.5058 4.32411 46.5058 4.32411 46.75 4.8126C46.9129 5.9134 46.6814 6.64045 46.0954 7.572C45.5494 8.46357 45.6318 9.47591 45.7188 10.4845C45.9554 11.4248 46.4459 12.1018 47.0615 12.837C49.0296 15.195 49.5773 17.7964 49.3281 20.797C48.9305 23.0542 47.698 25.0578 46.0625 26.6407C45.5065 26.9188 44.9448 26.9118 44.3438 26.8126C43.773 26.5181 43.3936 26.1458 43.1406 25.545C43.1406 24.45 43.4539 23.8927 44.1504 23.0743C45.2867 21.7045 45.6199 20.3991 45.6382 18.6371C45.4019 17.1096 44.6412 15.9407 43.7422 14.7169C42.1903 12.5062 41.6511 10.5987 41.9375 7.90635C42.2098 6.47549 42.8459 5.20647 43.8281 4.1251C44.4206 3.7619 44.8515 3.6979 45.5469 3.78135Z" fill="black"/>
<path d="M36.2656 0.000110411C36.8069 0.259438 37.0326 0.449454 37.2506 1.01122C37.4777 2.09466 37.0797 2.78725 36.5141 3.69878C36.0222 4.54298 35.9944 5.40251 36.0938 6.35949C36.4575 7.48231 37.0939 8.38474 37.8018 9.31359C39.4298 11.5319 40.1776 13.9688 39.7958 16.7291C39.3792 18.9518 38.45 20.6618 36.9531 22.3439C36.8683 22.4416 36.7834 22.5393 36.696 22.6399C36.2319 23.0341 35.6483 23.0497 35.0625 23.0314C34.3425 22.7433 33.9994 22.3622 33.6875 21.6564C33.5743 21.1026 33.6056 20.7714 33.8829 20.276C34.1543 19.8713 34.4365 19.4754 34.7188 19.0782C35.6964 17.5773 36.3022 16.2623 36.0938 14.4376C35.7963 13.1366 35.182 12.1693 34.3797 11.1189C32.8943 9.14694 32.1397 7.12108 32.3125 4.64074C32.566 2.99331 33.1633 1.49653 34.2569 0.225696C34.9354 -0.105666 35.5257 -0.127237 36.2656 0.000110411Z" fill="black"/>
<path d="M26.4687 3.78113C27.4276 4.32389 27.4276 4.32389 27.6719 4.81238C27.7906 5.86367 27.6734 6.43234 27.1562 7.35828C26.5842 8.42765 26.4284 9.28619 26.6406 10.4843C27.0444 11.7416 27.8803 12.7146 28.6769 13.7459C29.8446 15.3861 30.3108 17.1428 30.3037 19.1317C30.3065 19.284 30.3092 19.4364 30.3121 19.5933C30.314 22.1984 29.0654 24.4118 27.3281 26.2968C26.7629 26.7934 26.3718 26.902 25.604 26.8748C25.0719 26.7766 24.7755 26.5054 24.4062 26.1249C24.1235 25.5594 24.1243 25.015 24.2344 24.4061C24.5229 23.8501 24.897 23.3643 25.2656 22.8593C25.4591 22.5572 25.649 22.2529 25.835 21.9462C25.9194 21.8086 26.0038 21.671 26.0908 21.5292C26.7243 20.3343 26.6319 18.7014 26.3754 17.4022C26.0182 16.3826 25.3704 15.5851 24.7024 14.7518C23.0621 12.6912 22.5848 10.4879 22.8594 7.90613C23.1277 6.52916 23.7192 5.1056 24.75 4.12488C25.3499 3.77171 25.7697 3.69725 26.4687 3.78113Z" fill="black"/>
<path d="M62.6424 44.9231C63.3109 45.0889 63.5401 45.3277 63.9375 45.8906C64.0565 46.5091 64.043 47.1103 64.0234 47.7382C64.0201 47.9151 64.0168 48.092 64.0134 48.2742C63.9692 49.8123 63.7884 51.2727 63.4219 52.7656C63.3877 52.9059 63.3536 53.0463 63.3184 53.191C62.0733 58.1705 59.7279 62.4482 56.2031 66.1718C56.085 66.2977 55.9669 66.4235 55.8453 66.5532C55.3907 66.9753 55.1015 67.0191 54.4844 67.0312C53.7539 66.8207 53.3875 66.6617 52.9375 66.0429C52.7139 65.3162 52.6942 65.011 52.9375 64.2812C53.2747 63.8607 53.6413 63.4784 54.0137 63.0888C57.8049 58.9908 60.0314 53.3163 60.2452 47.7678C60.2915 46.8528 60.4374 46.09 60.9297 45.3105C61.5066 44.9355 61.9664 44.9409 62.6424 44.9231Z" fill="black"/>
<path d="M49.6719 67.7187C50.2909 68.0263 50.6434 68.4166 50.8857 69.0723C50.8716 69.7777 50.7156 70.2035 50.3594 70.8125C49.7737 71.2384 49.4397 71.3281 48.7158 71.3281C47.9824 71.1148 47.6994 70.9278 47.2656 70.2969C47.0999 69.4946 47.1523 68.9314 47.5879 68.2344C48.2161 67.6431 48.8344 67.582 49.6719 67.7187Z" fill="black"/>
<path d="M25.2656 30.0781C25.9541 30.4988 26.2398 30.7529 26.4795 31.5283C26.467 32.2423 26.364 32.5886 25.9531 33.1718C25.3666 33.5851 25.0281 33.6875 24.3096 33.6875C23.5762 33.4741 23.2931 33.2871 22.8594 32.6562C22.7387 32.1147 22.734 31.6503 22.8594 31.1093C23.5838 30.1942 24.1071 29.9622 25.2656 30.0781Z" fill="black"/>
</g>
<defs>
<clipPath id="clip0_1160_37">
<rect width="88" height="88" fill="white"/>
</clipPath>
</defs>
</svg>
