<svg fill="none" xmlns="http://www.w3.org/2000/svg" viewBox="0 0 88 88"><g clip-path="url(#clip0_1160_37)"><path d="m2.398 30.048.427-.004 1.405-.007.485-.002q1.268-.006 2.537-.008 1.31-.004 2.621-.014 1.008-.006 2.015-.007.483 0 .967-.006.675-.005 1.352-.003l.403-.006c.639.006.997.066 1.54.414.579.596.59 1.058.583 1.862-.098.622-.431.884-.92 1.249-.59.196-1.041.192-1.663.191h-.351l-1.147-.003h-.795l-2.093-.005-2.136-.003q-2.096-.003-4.19-.009.02 2.435.049 4.87l.023 2.262c.037 4.278.037 4.278.254 8.55l.04.54c.61 7.419 4.065 14.143 9.087 19.528l.377.412c1.162 1.22 2.468 2.259 3.84 3.232q.43.315.837.659c1.58 1.232 2.945 1.222 4.88 1.204q.483.002.966.007 1.304.008 2.608 0c.912-.004 1.825-.001 2.738.001q2.3.004 4.598-.007a625 625 0 0 1 5.304.002q2.283.01 4.566.004 1.362-.004 2.722.002 1.28.006 2.56-.007.468-.003.935.002c2.041.018 3.233-.198 4.834-1.557q.307-.225.618-.444a46 46 0 0 0 3.68-3.166l.393-.36c6.388-6.04 9.012-14.919 9.256-23.452.046-1.864.062-3.729.078-5.593q.011-1.136.025-2.272.023-2.208.044-4.417l-.555.002q-6.688.017-13.375.025-3.234.004-6.468.012-2.82.008-5.637.01-1.492 0-2.985.006-1.405.006-2.81.004-.515 0-1.03.003-.705.003-1.409 0l-.412.005c-.823-.007-1.39-.124-2.1-.582-.46-.69-.464-1.25-.344-2.063.308-.493.513-.772 1.031-1.03a41 41 0 0 1 1.497-.026l.476-.002 1.587-.003 1.134-.004a1986 1986 0 0 1 5.014-.009q2.84-.005 5.68-.007h1.388q2.787-.004 5.576-.012 2.862-.009 5.724-.01 1.606 0 3.214-.006a525 525 0 0 1 3.023-.003q.555 0 1.11-.003.758-.004 1.515 0l.445-.006c.694.008 1.034.037 1.634.418.544.571.535.904.531 1.677l-.001.584-.005.612-.002.617-.008 1.51.547-.004q2.558-.021 5.114-.031 1.314-.005 2.628-.017 1.269-.01 2.538-.013.484-.002.967-.008.678-.006 1.357-.005l.402-.007c.893.006 1.402.205 2.087.773.274.548.199 1.143.2 1.746l.002.44q.004.723.005 1.447l.003 1.008.003 2.122q.002 1.35.01 2.7.005 1.044.005 2.088 0 .498.004.994c.03 4.736-1.202 8.991-4.584 12.438l-.46.454-.386.385c-3.664 3.456-8.332 4.329-13.171 4.277l-.861-.004q-1.041-.006-2.082-.017l-.153.401c-1.29 3.097-4.719 6.103-7.238 8.193h.614q2.865.004 5.728.022 1.472.01 2.945.011 1.421.001 2.842.014l1.084.002q.76-.001 1.519.01l.453-.005c.746.014 1.054.05 1.666.516.738 1.011.424 2.57.26 3.765-.631 2.953-2.427 5.452-4.871 7.185-2.226 1.366-4.292 1.766-6.857 1.759l-.71.002q-.97.002-1.941 0-1.049 0-2.098.003-2.052.002-4.105.002h-3.818l-.966.002h-9.057q-4.138 0-8.278.004-4.252.006-8.507.004-2.386 0-4.773.003-2.032.003-4.063 0a477 477 0 0 0-2.072.001q-.95.002-1.9-.001l-1.005.003c-3.258-.02-5.982-1.22-8.293-3.506Q.054 81.377-.075 77.13l-.018-.358c-.005-.63.063-.935.453-1.436.619-.493.933-.507 1.717-.51q.178-.004.361-.006.587-.006 1.175-.003l.817-.008q1.073-.01 2.145-.01c.73 0 1.461-.007 2.192-.013q2.148-.016 4.296-.02l-.223-.207-1.01-.942-.35-.326C5.036 67.28.338 58.71-.018 49.744q-.011-.735-.012-1.47l-.004-.56-.007-1.82-.002-.631q-.006-1.648-.008-3.296-.004-1.703-.014-3.405-.007-1.31-.007-2.62 0-.628-.006-1.256a191 191 0 0 1-.003-1.752l-.006-.524c.005-.754.013-1.18.414-1.834.653-.591 1.229-.525 2.07-.528m69.79 8.968v3.265l.696.008q1.28.015 2.56.037l1.109.015q.796.008 1.593.024l.5.003c.843.019 1.458.038 2.135.6.2.4.198.64.205 1.084l.009.465q.011 1.065.018 2.131.005.558.014 1.116c.054 3.052-.14 5.467-2.136 7.923l-.315.428c-1.685 1.952-4.227 2.854-6.726 3.068q-.948.068-1.897.114l-.601 1.44-.174.413-.165.396-.153.365c-.13.307-.13.307-.11.651 4.468.12 8.144-.477 11.645-3.502 2.887-2.746 4.08-6.22 4.182-10.133q.007-.953.002-1.905v-.619l-.006-2.263-.01-5.124zm0 6.875-.044 1.869c-.075 2.333-.415 4.6-.816 6.896l-.172 1.031c1.72-.006 3.14-.51 4.458-1.632l.355-.43.44-.462c1.302-1.598 1.307-3.597 1.29-5.554l-.011-1.718zM3.78 78.375c.326 1.956 1.378 3.415 2.922 4.64 2.192 1.401 4.369 1.6 6.93 1.591l.665.002h3.762q1.91.003 3.823.001h4.459q4.22 0 8.439-.002 3.615-.002 7.23 0 4.206.003 8.411.002h8.233q.963-.003 1.928-.001 1.049.001 2.096-.002l.608.002c2.777-.013 5.15-.44 7.257-2.377.901-.968 1.987-2.495 1.987-3.856zM45.547 3.781c.959.543.959.543 1.203 1.032.163 1.1-.069 1.827-.655 2.759-.546.892-.463 1.904-.376 2.913.236.94.727 1.617 1.343 2.352 1.968 2.358 2.515 4.96 2.266 7.96-.398 2.257-1.63 4.26-3.266 5.844-.555.278-1.117.27-1.718.172-.571-.295-.95-.667-1.203-1.268 0-1.095.313-1.652 1.01-2.47 1.136-1.37 1.469-2.676 1.487-4.438-.236-1.527-.997-2.696-1.896-3.92-1.552-2.21-2.09-4.118-1.804-6.81a7.7 7.7 0 0 1 1.89-3.782c.593-.363 1.023-.427 1.719-.344M36.266 0c.54.26.767.45.985 1.011.227 1.084-.171 1.776-.737 2.688-.492.844-.52 1.704-.42 2.66.364 1.123 1 2.026 1.708 2.955 1.628 2.218 2.376 4.655 1.994 7.415-.417 2.223-1.346 3.933-2.843 5.615l-.257.296c-.464.394-1.048.41-1.633.391-.72-.288-1.064-.669-1.376-1.375-.113-.553-.081-.885.196-1.38.271-.405.553-.8.836-1.198.977-1.5 1.583-2.816 1.375-4.64-.298-1.301-.912-2.269-1.714-3.32-1.486-1.971-2.24-3.997-2.068-6.477.254-1.648.851-3.144 1.945-4.415.678-.332 1.269-.353 2.009-.226m-9.797 3.781c.959.543.959.543 1.203 1.031.119 1.052.001 1.62-.516 2.546-.572 1.07-.728 1.928-.515 3.126.403 1.258 1.24 2.23 2.036 3.262 1.168 1.64 1.634 3.397 1.627 5.386l.008.461c.002 2.605-1.247 4.819-2.984 6.704-.565.496-.956.605-1.724.578-.532-.098-.828-.37-1.198-.75-.282-.566-.282-1.11-.172-1.719.289-.556.663-1.042 1.032-1.547q.29-.453.569-.913l.256-.417c.633-1.195.54-2.828.284-4.127-.357-1.02-1.005-1.817-1.673-2.65-1.64-2.06-2.117-4.264-1.843-6.846.269-1.377.86-2.8 1.891-3.781.6-.353 1.02-.428 1.719-.344" fill="#000"/><path d="M62.642 44.923c.669.166.898.405 1.295.968.12.618.106 1.22.086 1.847l-.01.536a21 21 0 0 1-.591 4.492l-.104.425c-1.245 4.98-3.59 9.257-7.115 12.98l-.358.382c-.454.422-.743.466-1.36.478-.731-.21-1.097-.37-1.547-.988-.224-.727-.244-1.032 0-1.762.337-.42.703-.803 1.076-1.192 3.79-4.098 6.017-9.773 6.231-15.321.047-.915.192-1.678.685-2.458.577-.375 1.036-.37 1.712-.387m-12.97 22.796c.619.307.971.698 1.214 1.353-.014.706-.17 1.132-.527 1.74-.585.426-.92.516-1.643.516-.734-.213-1.017-.4-1.45-1.031-.166-.802-.114-1.366.322-2.063.628-.59 1.246-.652 2.084-.515M25.266 30.078c.688.42.974.675 1.214 1.45-.013.714-.116 1.06-.527 1.644-.586.413-.925.516-1.643.516-.734-.214-1.017-.4-1.45-1.032a3.3 3.3 0 0 1 0-1.547c.724-.915 1.247-1.147 2.406-1.03" fill="#000"/></g><defs><clipPath id="clip0_1160_37"><rect width="88" height="88" fill="#fff"/></clipPath></defs></svg>