<svg display="none" xmlns="http://www.w3.org/2000/svg">
  <symbol id="facebook" viewBox="0 0 20 20" fill="none">
    <path
      d="M10 0C4.477 0 0 4.477 0 10C0 14.991 3.657 19.128 8.438 19.879V12.89H5.898V10H8.438V7.797C8.438 5.291 9.93 3.907 12.215 3.907C13.309 3.907 14.453 4.102 14.453 4.102V6.562H13.193C11.95 6.562 11.563 7.333 11.563 8.124V10H14.336L13.893 12.89H11.563V19.879C16.343 19.129 20 14.99 20 10C20 4.477 15.523 0 10 0Z"
      fill="currentColor" />
  </symbol>

  <symbol id="instagram" viewBox="0 0 20 20" fill="none">
    <path
      d="M10 0C12.717 0 13.056 0.00999994 14.122 0.0599999C15.187 0.11 15.912 0.277 16.55 0.525C17.21 0.779 17.766 1.123 18.322 1.678C18.8305 2.1779 19.224 2.78259 19.475 3.45C19.722 4.087 19.89 4.813 19.94 5.878C19.987 6.944 20 7.283 20 10C20 12.717 19.99 13.056 19.94 14.122C19.89 15.187 19.722 15.912 19.475 16.55C19.2247 17.2178 18.8311 17.8226 18.322 18.322C17.822 18.8303 17.2173 19.2238 16.55 19.475C15.913 19.722 15.187 19.89 14.122 19.94C13.056 19.987 12.717 20 10 20C7.283 20 6.944 19.99 5.878 19.94C4.813 19.89 4.088 19.722 3.45 19.475C2.78233 19.2245 2.17753 18.8309 1.678 18.322C1.16941 17.8222 0.775931 17.2175 0.525 16.55C0.277 15.913 0.11 15.187 0.0599999 14.122C0.0129999 13.056 0 12.717 0 10C0 7.283 0.00999994 6.944 0.0599999 5.878C0.11 4.812 0.277 4.088 0.525 3.45C0.775236 2.78218 1.1688 2.17732 1.678 1.678C2.17767 1.16923 2.78243 0.775729 3.45 0.525C4.088 0.277 4.812 0.11 5.878 0.0599999C6.944 0.0129999 7.283 0 10 0ZM10 5C8.67392 5 7.40215 5.52678 6.46447 6.46447C5.52678 7.40215 5 8.67392 5 10C5 11.3261 5.52678 12.5979 6.46447 13.5355C7.40215 14.4732 8.67392 15 10 15C11.3261 15 12.5979 14.4732 13.5355 13.5355C14.4732 12.5979 15 11.3261 15 10C15 8.67392 14.4732 7.40215 13.5355 6.46447C12.5979 5.52678 11.3261 5 10 5ZM16.5 4.75C16.5 4.41848 16.3683 4.10054 16.1339 3.86612C15.8995 3.6317 15.5815 3.5 15.25 3.5C14.9185 3.5 14.6005 3.6317 14.3661 3.86612C14.1317 4.10054 14 4.41848 14 4.75C14 5.08152 14.1317 5.39946 14.3661 5.63388C14.6005 5.8683 14.9185 6 15.25 6C15.5815 6 15.8995 5.8683 16.1339 5.63388C16.3683 5.39946 16.5 5.08152 16.5 4.75ZM10 7C10.7956 7 11.5587 7.31607 12.1213 7.87868C12.6839 8.44129 13 9.20435 13 10C13 10.7956 12.6839 11.5587 12.1213 12.1213C11.5587 12.6839 10.7956 13 10 13C9.20435 13 8.44129 12.6839 7.87868 12.1213C7.31607 11.5587 7 10.7956 7 10C7 9.20435 7.31607 8.44129 7.87868 7.87868C8.44129 7.31607 9.20435 7 10 7Z"
      fill="currentColor" />
  </symbol>

  <symbol id="youtube" viewBox="0 0 20 16" fill="none">
    <path
      d="M19.543 2.498C20 4.28 20 8 20 8C20 8 20 11.72 19.543 13.502C19.289 14.487 18.546 15.262 17.605 15.524C15.896 16 10 16 10 16C10 16 4.107 16 2.395 15.524C1.45 15.258 0.708 14.484 0.457 13.502C2.98023e-08 11.72 0 8 0 8C0 8 2.98023e-08 4.28 0.457 2.498C0.711 1.513 1.454 0.738 2.395 0.476C4.107 -1.78814e-07 10 0 10 0C10 0 15.896 -1.78814e-07 17.605 0.476C18.55 0.742 19.292 1.516 19.543 2.498ZM8 11.5L14 8L8 4.5V11.5Z"
      fill="currentColor" />
  </symbol>

  <symbol id="twitter" viewBox="0 0 22 18" fill="none">
    <path
      d="M21.162 2.65593C20.3986 2.99362 19.589 3.2154 18.76 3.31393C19.6338 2.79136 20.2877 1.96894 20.6 0.999927C19.78 1.48793 18.881 1.82993 17.944 2.01493C17.3146 1.34151 16.4804 0.89489 15.571 0.744511C14.6616 0.594133 13.7279 0.748418 12.9153 1.18338C12.1026 1.61834 11.4564 2.30961 11.0771 3.14972C10.6978 3.98983 10.6068 4.93171 10.818 5.82893C9.15512 5.74558 7.52834 5.31345 6.04329 4.56059C4.55825 3.80773 3.24813 2.75097 2.19801 1.45893C1.8263 2.09738 1.63096 2.82315 1.63201 3.56193C1.63201 5.01193 2.37001 6.29293 3.49201 7.04293C2.82802 7.02202 2.17864 6.84271 1.59801 6.51993V6.57193C1.59821 7.53763 1.93238 8.47354 2.54385 9.22099C3.15533 9.96843 4.00649 10.4814 4.95301 10.6729C4.33662 10.84 3.69031 10.8646 3.06301 10.7449C3.32987 11.5762 3.85001 12.3031 4.5506 12.824C5.25118 13.3449 6.09714 13.6337 6.97001 13.6499C6.10249 14.3313 5.10918 14.8349 4.04689 15.1321C2.98459 15.4293 1.87413 15.5142 0.779007 15.3819C2.6907 16.6114 4.9161 17.264 7.18901 17.2619C14.882 17.2619 19.089 10.8889 19.089 5.36193C19.089 5.18193 19.084 4.99993 19.076 4.82193C19.8949 4.23009 20.6016 3.49695 21.163 2.65693L21.162 2.65593Z"
      fill="currentColor" />
  </symbol>

  <symbol id="coffee-beans" viewBox="0 0 88 88" fill="none">
    <path
      d="M63.4234 -0.0318402C63.7941 -0.0322141 64.1647 -0.035339 64.5354 -0.038596C70.1082 -0.0614925 75.6584 1.68387 79.9219 5.32813C80.0102 5.40302 80.0986 5.47791 80.1896 5.55506C84.6539 9.37919 87.4226 14.9458 87.9663 20.8009C88.0372 21.8763 88.0419 22.953 88.043 24.0303C88.0431 24.1554 88.0433 24.2806 88.0435 24.4095C88.0415 26.5081 87.9025 28.5325 87.4844 30.5938C87.4595 30.7201 87.4347 30.8465 87.4091 30.9767C85.9388 38.2792 82.1713 45.0968 77.3438 50.7031C77.2359 50.8312 77.128 50.9593 77.0168 51.0912C76.7304 51.4259 76.4374 51.7526 76.1406 52.0781C76.06 52.1672 75.9794 52.2562 75.8963 52.3479C73.9098 54.5375 73.9098 54.5375 72.8616 55.4102C72.4848 55.7265 72.1286 56.0612 71.7686 56.3965C68.9671 58.9305 68.9671 58.9305 67.5469 59.6406C67.5593 59.8057 67.5717 59.9708 67.5845 60.1408C68.0787 67.1881 67.4034 74.5397 62.6176 80.1267C61.9362 80.8858 61.2235 81.6093 60.5 82.3281C60.3448 82.4857 60.3448 82.4857 60.1865 82.6464C55.8987 86.7274 49.7179 88.0836 43.9785 88.0537C43.8555 88.0535 43.7324 88.0532 43.6056 88.0529C41.5247 88.0452 39.5117 87.8911 37.4688 87.4844C37.3377 87.4595 37.2067 87.4347 37.0717 87.4091C28.9531 85.8496 20.4758 81.6147 14.7322 75.582C14.4233 75.2668 14.0983 74.9854 13.7608 74.7012C12.9347 73.9901 12.2303 73.18 11.5156 72.3594C11.424 72.2562 11.3323 72.153 11.2379 72.0467C4.6229 64.5718 -0.0329073 54.6372 -0.0318404 44.5485C-0.0322138 44.1548 -0.0353368 43.7612 -0.0385962 43.3676C-0.0604771 37.7128 1.53326 32.3882 5.15626 28.0156C5.31877 27.8166 5.31877 27.8166 5.48457 27.6135C9.30799 23.0759 15.1543 20.8824 20.9181 20.3086C21.7081 20.2539 22.4974 20.2485 23.2891 20.249C23.4683 20.2489 23.6476 20.2488 23.8322 20.2487C25.3604 20.259 26.8498 20.3953 28.3594 20.625C28.4021 20.5308 28.4449 20.4367 28.489 20.3397C29.6947 18.0756 31.728 16.0651 33.4619 14.2012C33.566 14.0888 33.67 13.9764 33.7772 13.8606C34.4143 13.183 35.0791 12.5587 35.7849 11.9531C36.1514 11.6379 36.5032 11.3084 36.8565 10.9785C43.0774 5.37107 51.1554 1.35599 59.4688 0.171884C59.6327 0.147021 59.6327 0.147021 59.7999 0.121656C61.003 -0.0386393 62.212 -0.0319764 63.4234 -0.0318402ZM58.0938 5.84376C57.9647 5.87325 57.8357 5.90275 57.7028 5.93314C54.6963 6.62866 51.8495 7.66932 49.1243 9.11627C48.8296 9.27219 48.5328 9.4239 48.2358 9.57533C44.5943 11.4648 41.1632 14.0501 38.3281 17.0156C37.8953 17.4514 37.4598 17.8838 37.0196 18.3121C35.2277 19.9559 35.2277 19.9559 34.0313 22C34.1477 22.0431 34.2642 22.0861 34.3842 22.1305C40.1488 24.2738 45.3975 26.9371 50.109 30.9375C50.6341 31.3649 51.1806 31.7511 51.7344 32.1406C51.7801 31.9988 51.8259 31.857 51.8731 31.7109C54.903 22.3636 59.8954 14.5295 68.8665 9.9033C70.4608 9.10781 72.0739 8.38069 73.7344 7.73438C71.0945 5.7055 67.1799 5.28796 63.9697 5.28516C63.8505 5.28505 63.7312 5.28493 63.6084 5.28481C61.7242 5.28772 59.9299 5.40269 58.0938 5.84376ZM76.1191 12.4609C76.0096 12.4999 75.9001 12.5389 75.7873 12.5791C74.0623 13.197 72.4076 13.8745 70.8125 14.7813C70.7021 14.843 70.5918 14.9048 70.4781 14.9685C69.0592 15.7687 67.7477 16.6308 66.5156 17.7031C66.3769 17.823 66.2382 17.9429 66.0953 18.0664C61.0081 22.5555 58.0913 27.9577 56.5469 34.5469C56.5091 34.706 56.4712 34.8651 56.4323 35.0291C56.3827 35.253 56.3827 35.253 56.332 35.4815C56.2882 35.6779 56.2882 35.6779 56.2434 35.8782C56.1776 36.5114 56.2563 36.9743 56.6516 37.4761C56.773 37.5978 56.8944 37.7194 57.0195 37.8447C59.1084 40.0859 60.7071 42.7244 62.2188 45.375C62.2887 45.496 62.3587 45.6171 62.4307 45.7418C63.9256 48.3467 64.955 51.1607 66 53.9688C67.9244 52.8726 69.48 51.2114 71.0381 49.6611C71.198 49.5028 71.358 49.3444 71.5228 49.1812C72.5072 48.1925 73.4035 47.171 74.25 46.0625C74.3992 45.8704 74.3992 45.8704 74.5514 45.6745C76.0602 43.7193 77.3762 41.7052 78.5469 39.5313C78.6102 39.4151 78.6734 39.2989 78.7386 39.1792C80.2831 36.3187 81.4117 33.2402 82.1563 30.0781C82.1844 29.9641 82.2125 29.85 82.2415 29.7325C83.5722 24.1442 82.7282 17.9682 79.75 13.0625C79.2771 12.3415 79.2771 12.3415 78.7188 11.6875C77.8418 11.6875 76.9413 12.1682 76.1191 12.4609ZM11.3438 29.5625C12.4215 34.976 15.3609 39.6704 19.0781 43.6563C19.2046 43.7941 19.3312 43.9319 19.4615 44.0739C23.6672 48.4839 29.2772 50.7417 35.0733 52.1641C41.4809 53.74 46.9456 56.6163 51.7344 61.1875C51.9544 61.3939 51.9544 61.3939 52.1788 61.6044C55.5265 64.8307 57.969 68.9501 59.6691 73.2424C59.8223 73.6081 59.8223 73.6081 60.1563 74.0781C61.2255 72.1853 61.8986 70.039 62.2188 67.8906C62.2378 67.7681 62.2569 67.6456 62.2765 67.5194C63.4291 58.4385 59.3655 49.4633 53.9627 42.4209C53.7931 42.2023 53.6233 41.9838 53.4531 41.7656C53.3151 41.5884 53.1771 41.4111 53.0349 41.2285C51.9872 39.9412 50.8301 38.7635 49.6611 37.5869C49.5026 37.4268 49.3441 37.2667 49.1808 37.1018C48.1921 36.1176 47.1706 35.2218 46.0625 34.375C45.9372 34.2774 45.8119 34.1797 45.6828 34.0791C40.2804 29.895 33.9779 26.7399 27.1563 25.7813C27.0242 25.7622 26.8922 25.7432 26.7561 25.7235C21.4376 25.1047 15.5108 25.9564 11.3438 29.5625ZM7.21876 34.5469C5.12591 39.4023 4.59506 45.0136 5.84376 50.1875C5.90059 50.4276 5.90059 50.4276 5.95857 50.6725C7.18842 55.7261 9.33585 60.5677 12.375 64.7969C12.5654 65.0631 12.5654 65.0631 12.7597 65.3347C13.1383 65.8504 13.5265 66.3564 13.9219 66.8594C14.0486 67.0216 14.1753 67.1837 14.3059 67.3508C16.5287 70.0833 19.1202 72.7293 22 74.7656C22.1038 74.8409 22.2077 74.9161 22.3146 74.9937C27.4964 78.743 33.4994 81.5923 39.875 82.5C40.0467 82.5257 40.0467 82.5257 40.2219 82.5518C41.4628 82.715 42.7074 82.7035 43.957 82.7041C44.1773 82.7062 44.3975 82.7083 44.6244 82.7105C47.6066 82.715 50.3981 82.1516 53.0986 80.8887C53.2328 80.8263 53.367 80.7639 53.5052 80.6996C54.4301 80.2502 55.2303 79.706 56.0313 79.0625C55.8188 77.9925 55.5311 76.9799 55.1504 75.958C55.098 75.8171 55.0456 75.6761 54.9916 75.5309C53.5242 71.6792 51.2899 68.3053 48.4688 65.3125C48.3016 65.1287 48.3016 65.1287 48.131 64.9412C43.9565 60.5263 38.2866 58.2121 32.5007 56.8164C28.0433 55.7403 23.8366 54.1253 20.1094 51.3906C20.0192 51.3244 19.9289 51.2583 19.836 51.1901C18.5466 50.2376 17.3199 49.2288 16.1563 48.125C16.0721 48.0465 15.988 47.968 15.9014 47.8871C12.2273 44.4395 9.67993 40.1706 7.77332 35.5426C7.56945 35.0406 7.56945 35.0406 7.21876 34.5469Z"
      fill="black" />
  </symbol>

  <symbol id="badge" viewBox="0 0 88 88" fill="none">
    <path
      d="M46.9219 0.687548C48.0003 1.39314 49.021 2.17163 50.0452 2.95281C50.1656 3.0442 50.286 3.13559 50.41 3.22975C50.6415 3.406 50.8721 3.5834 51.1017 3.76216C53.4357 5.54745 55.8101 5.54852 58.6416 5.50005C63.0968 5.42428 63.0968 5.42428 64.9419 6.96837C66.2236 8.2416 66.6361 10.1097 67.1609 11.7869C67.2126 11.9519 67.2643 12.117 67.3176 12.287C67.4175 12.6086 67.5156 12.9306 67.6117 13.2533C68.377 15.7562 69.4551 17.2708 71.6182 18.7237C71.9257 18.9351 72.2332 19.1466 72.5407 19.3581C72.8239 19.5514 73.1073 19.7445 73.3907 19.9375C75.0474 21.0685 76.6119 22.1785 77.0799 24.2431C77.3247 25.7917 76.8783 27.2464 76.381 28.7005C76.3394 28.8225 76.2978 28.9444 76.2549 29.0701C76.0812 29.5758 75.9064 30.081 75.7264 30.5846C74.9598 32.7409 74.491 34.8197 75.292 37.0606C75.3294 37.1703 75.3668 37.28 75.4053 37.3931C75.5321 37.7635 75.6642 38.1317 75.7969 38.5C77.5743 43.512 77.5743 43.512 76.8282 45.5469C75.9083 47.3973 74.3776 48.4272 72.7085 49.547C71.9584 50.0505 71.2329 50.5822 70.5091 51.1228C70.125 51.3907 70.125 51.3907 69.7517 51.5565C69.3482 51.785 69.2924 52.0079 69.0938 52.4219C68.9575 52.6287 68.8196 52.8343 68.6802 53.0389C68.168 53.8513 67.9031 54.696 67.6328 55.6124C67.5305 55.947 67.428 56.2816 67.3253 56.6161C67.2759 56.7791 67.2264 56.9422 67.1755 57.1101C66.974 57.7642 66.7573 58.4126 66.5371 59.0606C66.4134 59.4252 66.2913 59.7903 66.1719 60.1563C66.1167 60.3184 66.1167 60.3184 66.0604 60.4839C65.9841 60.9388 66.0763 61.1742 66.247 61.601C66.3059 61.7512 66.3649 61.9014 66.4256 62.0562C66.4919 62.2193 66.5582 62.3824 66.6264 62.5505C66.6946 62.7228 66.7629 62.8951 66.8331 63.0726C67.0586 63.6409 67.2866 64.2082 67.5147 64.7754C67.6711 65.1685 67.8273 65.5617 67.9833 65.9549C68.3058 66.7675 68.6292 67.5798 68.9531 68.3918C69.6317 70.0948 70.2991 71.8021 70.9659 73.5097C71.1637 74.0159 71.3618 74.5218 71.56 75.0278C71.6817 75.3385 71.8033 75.6493 71.925 75.9601C71.9791 76.0981 72.0332 76.2361 72.089 76.3783C72.1893 76.6349 72.2892 76.8916 72.3887 77.1485C72.4856 77.398 72.5839 77.6469 72.6834 77.8953C73.0072 78.7196 73.136 79.2293 72.875 80.0938C72.4986 80.5377 72.193 80.8645 71.6719 81.125C69.3354 81.1021 67.0016 80.7348 64.6881 80.4386C64.2098 80.3776 63.7313 80.3182 63.2527 80.259C63.107 80.2398 62.9613 80.2207 62.8111 80.2009C62.6755 80.1843 62.5399 80.1676 62.4002 80.1504C62.2818 80.1353 62.1634 80.1202 62.0414 80.1046C61.4053 80.0843 61.0942 80.1922 60.6269 80.6296C60.4893 80.786 60.3517 80.9424 60.21 81.1036C60.0971 81.2311 60.0971 81.2311 59.9819 81.3612C59.3617 82.0672 58.7687 82.7949 58.1784 83.5259C57.4001 84.4726 56.5906 85.3926 55.784 86.3152C55.5978 86.5302 55.4135 86.7467 55.2306 86.9644C55.1392 87.0731 55.0478 87.1818 54.9537 87.2938C54.8718 87.3922 54.7898 87.4906 54.7054 87.592C54.4186 87.8985 54.215 87.9911 53.7989 88.041C53.6671 88.0452 53.5353 88.0494 53.3994 88.0538C53.2037 88.0634 53.2037 88.0634 53.004 88.0732C52.4127 87.9677 52.1671 87.7302 51.7344 87.3125C51.4782 86.8629 51.3008 86.3908 51.1201 85.9067C51.0648 85.765 51.0096 85.6233 50.9526 85.4774C50.7704 85.0086 50.5918 84.5385 50.4131 84.0684C50.286 83.7395 50.1585 83.4107 50.0309 83.082C49.7618 82.3882 49.4941 81.694 49.2274 80.9993C48.6088 79.39 47.9778 77.7855 47.3482 76.1804C47.1522 75.6801 46.9567 75.1797 46.7613 74.6791C46.6998 74.5216 46.6383 74.3641 46.5749 74.2018C46.4558 73.8967 46.3367 73.5915 46.2177 73.2864C45.9489 72.5987 45.678 71.9121 45.4008 71.2278C45.3521 71.1074 45.3033 70.987 45.2531 70.8629C45.1236 70.5439 44.9933 70.2253 44.8629 69.9067C44.6875 69.4375 44.6875 69.4375 44.6875 69.0938C44.2338 69.0938 43.78 69.0938 43.3125 69.0938C43.2828 69.1857 43.2532 69.2776 43.2226 69.3723C42.894 70.3754 42.5298 71.3605 42.147 72.344C42.0841 72.5065 42.0211 72.6691 41.9563 72.8365C41.3816 74.3194 40.8035 75.801 40.225 77.2824C39.762 78.4685 39.3022 79.6557 38.8449 80.8441C38.5516 81.6046 38.2563 82.3643 37.9604 83.1238C37.8194 83.4873 37.6792 83.8511 37.5399 84.2152C37.3453 84.7234 37.1476 85.2302 36.9491 85.7368C36.8925 85.887 36.8359 86.0372 36.7775 86.1919C36.4536 87.0077 36.1834 87.5249 35.4063 88C34.873 88.1345 34.3977 88.1056 33.8594 88C32.943 87.4464 32.3491 86.5771 31.6861 85.7475C31.3065 85.281 30.9135 84.8346 30.5078 84.3907C29.8453 83.6636 29.2204 82.9128 28.6058 82.1449C28.3988 81.8953 28.3988 81.8953 28.1875 81.6407C28.1056 81.5052 28.0236 81.3696 27.9392 81.23C27.5962 80.7315 27.3242 80.4215 26.8125 80.0938C25.788 79.9902 24.8263 80.1532 23.8155 80.3194C23.5485 80.3574 23.2814 80.3947 23.0142 80.4312C22.4817 80.5049 21.9501 80.5826 21.4187 80.6636C20.6308 80.7823 19.8417 80.8864 19.0506 80.982C18.8774 81.0039 18.8774 81.0039 18.7006 81.0263C16.6227 81.2723 16.6227 81.2723 15.7481 80.835C15.2539 80.3996 15.068 80.224 14.9532 79.5782C15.1979 78.024 15.8221 76.5881 16.3926 75.1309C16.505 74.8415 16.6173 74.5521 16.7295 74.2627C17.0408 73.461 17.3538 72.66 17.6672 71.8591C17.8856 71.3011 18.1038 70.743 18.3219 70.1849C19.0744 68.2601 19.8283 66.3358 20.5841 64.4122C20.6475 64.2506 20.711 64.089 20.7764 63.9225C20.8369 63.7685 20.8975 63.6146 20.9598 63.456C21.0464 63.234 21.0464 63.234 21.1347 63.0076C21.2575 62.7003 21.3851 62.3949 21.5165 62.0912C21.5811 61.94 21.6457 61.7888 21.7123 61.6329C21.7715 61.4985 21.8307 61.3641 21.8916 61.2256C22.0553 60.649 21.898 60.2732 21.6702 59.7359C21.4458 59.2056 21.288 58.6684 21.1259 58.116C21.0616 57.9038 20.9974 57.6917 20.9312 57.4731C20.799 57.0357 20.6678 56.5979 20.5377 56.1599C19.6075 53.1063 18.3353 51.4957 15.6514 49.7579C11.3378 46.8844 11.3378 46.8844 10.8651 44.555C10.7025 42.8687 11.1929 41.3353 11.752 39.7676C11.8896 39.3716 12.027 38.9755 12.1642 38.5793C12.2296 38.3908 12.295 38.2023 12.3624 38.008C13.4462 34.8397 12.9475 32.5694 11.8842 29.5001C11.8033 29.264 11.8033 29.264 11.7208 29.0231C11.616 28.7192 11.509 28.4159 11.3995 28.1137C10.8657 26.5815 10.5712 24.9295 11.1719 23.375C12.0772 21.592 13.6174 20.5126 15.2526 19.4441C18.7004 17.191 19.8445 15.0888 21.0399 11.1641C21.6374 9.22923 22.3291 7.3736 24.0625 6.18755C25.2326 5.61361 26.3679 5.47491 27.6618 5.49535C27.9316 5.49752 28.2014 5.49965 28.4712 5.50173C28.8916 5.50596 29.312 5.51074 29.7324 5.51654C33.1707 5.56088 35.3472 5.02348 38.0878 2.86418C40.7072 0.801835 43.5692 -1.25563 46.9219 0.687548ZM40.3047 5.8438C37.6752 7.97251 35.1694 9.16849 31.7264 9.11412C31.4544 9.11195 31.1824 9.10983 30.9103 9.10774C30.488 9.10348 30.0656 9.09866 29.6432 9.09293C29.2312 9.08771 28.8191 9.08468 28.4071 9.0819C28.2822 9.07958 28.1574 9.07727 28.0288 9.07489C27.2228 9.07096 26.537 9.16993 25.7813 9.45317C25.044 10.4178 24.7661 11.5906 24.417 12.7403C24.2961 13.1262 24.1748 13.5121 24.0531 13.8978C23.9954 14.0811 23.9376 14.2644 23.8781 14.4533C22.635 18.3543 20.5646 20.3803 17.2274 22.6022C16.717 22.9444 16.2152 23.2962 15.7158 23.6543C15.5028 23.8066 15.5028 23.8066 15.2855 23.9618C14.913 24.2403 14.913 24.2403 14.6094 24.75C14.5372 25.742 14.6693 26.4592 15.0109 27.4034C15.0955 27.6448 15.1801 27.8863 15.2647 28.1278C15.3977 28.4994 15.5316 28.8707 15.6663 29.2417C17.0668 33.1257 16.8892 36.2343 15.5332 40.1329C15.3994 40.5196 15.2664 40.9065 15.1356 41.2943C15.0551 41.5327 14.973 41.7705 14.8888 42.0076C14.6373 42.751 14.5519 43.3893 14.6094 44.1719C15.1241 45.0939 16.0852 45.6223 16.9405 46.2022C17.2516 46.4172 17.5626 46.6323 17.8737 46.8474C18.2668 47.1175 18.6602 47.3872 19.0548 47.655C22.0787 49.7104 23.2878 52.3829 24.2666 55.7735C24.3729 56.1394 24.4798 56.505 24.5889 56.8701C24.6867 57.1975 24.782 57.5256 24.877 57.8538C25.1498 58.5884 25.4559 59.2243 26.0935 59.7034C26.6252 59.858 27.1072 59.8476 27.6605 59.8401C27.7763 59.8392 27.8921 59.8383 28.0114 59.8374C28.3817 59.8343 28.7519 59.829 29.1221 59.8233C33.5424 59.765 36.6668 60.2707 40.2188 63.0782C40.5175 63.3109 40.8168 63.5428 41.1165 63.7742C41.396 63.9903 41.6745 64.2076 41.953 64.425C43.0161 65.2235 43.0161 65.2235 44.3089 65.4018C45.1351 65.207 45.7527 64.6259 46.4063 64.1094C46.8922 63.7321 47.3796 63.3566 47.8672 62.9815C48.0576 62.8347 48.0576 62.8347 48.2518 62.685C50.4127 61.0314 52.5039 59.994 55.2471 59.877C55.3826 59.8701 55.5181 59.8632 55.6577 59.8561C56.5187 59.8181 57.3764 59.8115 58.2381 59.8206C58.5386 59.8235 58.5386 59.8235 58.8451 59.8264C59.2409 59.8314 59.6367 59.8389 60.0324 59.8491C60.2146 59.8516 60.3969 59.8542 60.5846 59.8569C60.7466 59.8607 60.9085 59.8644 61.0753 59.8684C61.6294 59.8005 61.9412 59.6231 62.3907 59.2969C63.2616 58.1139 63.5373 56.6266 63.9241 55.23C65.1333 50.8936 67.37 48.6043 71.018 46.2143C72.3477 45.342 72.3477 45.342 73.3907 44.1719C73.4629 43.18 73.3307 42.4628 72.9892 41.5186C72.9045 41.2771 72.82 41.0357 72.7354 40.7942C72.6023 40.4226 72.4684 40.0513 72.3337 39.6803C70.952 35.8482 71.0853 32.7146 72.4668 28.8858C72.6008 28.5132 72.7339 28.1403 72.8645 27.7665C72.9447 27.5368 73.0268 27.3077 73.1112 27.0795C73.3974 26.2605 73.4642 25.6056 73.3907 24.75C72.7771 23.6557 71.3503 22.9469 70.3291 22.2793C66.6212 19.7988 65.0033 17.4155 63.7437 13.1295C63.2176 10.948 63.2176 10.948 61.875 9.2813C61.1398 9.07217 60.4083 9.09276 59.6507 9.10472C59.3809 9.1069 59.1112 9.10902 58.8414 9.1111C58.4209 9.11534 58.0005 9.12012 57.5801 9.12591C53.1442 9.18313 50.2792 7.91691 46.8285 5.15198C45.535 4.07436 45.535 4.07436 43.9779 3.53691C42.5702 3.74375 41.3813 4.9698 40.3047 5.8438ZM25.0938 63.25C24.3789 64.7568 23.7766 66.2964 23.1852 67.8545C22.9039 68.5953 22.6206 69.3354 22.3371 70.0754C22.2802 70.2239 22.2233 70.3725 22.1646 70.5255C21.6104 71.9691 21.0404 73.4061 20.4639 74.8409C20.4191 74.9525 20.3742 75.0641 20.328 75.1791C20.0839 75.7863 19.8392 76.3933 19.5938 77C20.1874 77.2969 20.861 77.08 21.5019 76.9947C21.8234 76.9541 22.145 76.9136 22.4666 76.8732C22.9736 76.8081 23.4805 76.7425 23.9872 76.6762C24.4763 76.6126 24.9656 76.5511 25.455 76.4898C25.6047 76.4696 25.7544 76.4493 25.9087 76.4285C28.0206 76.1666 28.0206 76.1666 28.8744 76.6979C28.9561 76.7905 29.0379 76.8831 29.1221 76.9786C29.2198 77.0869 29.3175 77.1952 29.4182 77.3069C29.9096 77.8984 30.3986 78.4914 30.8805 79.0907C31.2697 79.564 31.6732 80.0178 32.0869 80.4698C32.727 81.1716 33.3085 81.8986 33.8594 82.6719C34.2908 82.2881 34.4928 81.9521 34.6979 81.4147C34.7561 81.2642 34.8143 81.1138 34.8742 80.9587C34.9668 80.7134 34.9668 80.7134 35.0612 80.4631C35.127 80.292 35.1928 80.121 35.2606 79.9448C35.4752 79.3862 35.6878 78.827 35.9004 78.2676C36.194 77.4998 36.4883 76.7323 36.7826 75.9648C36.8556 75.774 36.9285 75.5833 37.0037 75.3867C37.4451 74.235 37.896 73.0877 38.359 71.9445C38.4124 71.8121 38.4658 71.6796 38.5209 71.5431C38.9223 70.5475 38.9223 70.5475 39.1195 70.071C39.2542 69.7451 39.3861 69.4181 39.5178 69.0911C39.5916 68.9116 39.6653 68.7321 39.7413 68.5471C39.8902 68.0077 39.8892 67.7282 39.7032 67.2032C39.4837 66.9248 39.4837 66.9248 39.1889 66.7104C39.0828 66.6262 38.9767 66.542 38.8674 66.4552C38.7533 66.3688 38.6391 66.2824 38.5215 66.1934C38.4048 66.1031 38.2881 66.0129 38.1679 65.9199C36.0013 64.2629 34.2707 63.3513 31.5055 63.334C31.2288 63.3293 31.2288 63.3293 30.9464 63.3246C30.3634 63.3154 29.7804 63.3095 29.1973 63.3038C28.7994 63.2981 28.4015 63.2921 28.0036 63.286C27.0337 63.2714 26.0637 63.2597 25.0938 63.25ZM58.9568 63.2952C58.5982 63.3009 58.2395 63.3057 57.8808 63.3096C57.3604 63.3154 56.8402 63.3244 56.32 63.334C56.1618 63.3351 56.0037 63.3362 55.8407 63.3373C52.71 63.4071 50.1024 65.3976 47.9532 67.5469C49.3138 71.1128 50.6879 74.6735 52.0846 78.2254C52.2309 78.5977 52.3767 78.9703 52.5221 79.343C52.7268 79.8672 52.933 80.3908 53.1396 80.9142C53.2318 81.1517 53.2318 81.1517 53.3259 81.394C53.383 81.5377 53.4402 81.6815 53.499 81.8296C53.5485 81.9555 53.598 82.0815 53.6489 82.2113C53.7777 82.5329 53.7777 82.5329 54.1407 82.6719C54.2264 82.5654 54.3121 82.4588 54.4005 82.349C55.3703 81.1528 56.3653 79.9813 57.3814 78.8242C57.7159 78.443 58.0425 78.0579 58.3603 77.6627C58.4886 77.5078 58.6169 77.353 58.749 77.1934C58.8565 77.0591 58.964 76.9249 59.0747 76.7865C60.0536 76.0361 61.4853 76.3411 62.6324 76.4838C62.7983 76.5031 62.9642 76.5224 63.1351 76.5423C63.6606 76.6038 64.1858 76.6676 64.711 76.7315C65.069 76.7738 65.4271 76.816 65.7852 76.8581C66.6591 76.961 67.5327 77.0659 68.4063 77.1719C67.2937 74.1953 66.1469 71.2329 64.9795 68.2774C64.8841 68.0354 64.8841 68.0354 64.7868 67.7885C64.6028 67.322 64.4183 66.8557 64.2336 66.3895C64.1521 66.1826 64.1521 66.1826 64.0688 65.9716C63.7042 65.0537 63.3137 64.1497 62.9063 63.25C61.5896 63.25 60.2733 63.2726 58.9568 63.2952Z"
      fill="black" />
    <path
      d="M50.1875 12.5469C50.3105 12.5819 50.4335 12.6169 50.5603 12.653C53.5213 13.5239 56.2747 14.9998 58.6094 17.0156C58.7019 17.094 58.7944 17.1724 58.8897 17.2531C63.083 20.8345 65.6056 25.6988 66.5156 31.1094C66.5475 31.2908 66.5794 31.4723 66.6123 31.6592C67.2866 37.5173 65.7514 43.6989 62.0789 48.3596C61.6213 48.9219 61.1513 49.472 60.6719 50.0156C60.5431 50.1621 60.4144 50.3085 60.2818 50.4594C56.4079 54.5704 50.6504 57.0495 45.0312 57.2344C44.8746 57.2412 44.718 57.2481 44.5566 57.2552C38.3511 57.3991 32.5083 55.0308 28.0203 50.7771C24.4721 47.3029 22.3333 42.8521 21.4844 37.9844C21.4527 37.8071 21.421 37.6299 21.3884 37.4473C20.7386 31.7433 22.0915 25.8178 25.4711 21.1332C25.8484 20.6646 26.2394 20.2139 26.6406 19.7656C26.855 19.5144 26.855 19.5144 27.0737 19.2581C30.0624 15.8082 34.1216 13.5451 38.5 12.375C38.6952 12.3198 38.8904 12.2647 39.0915 12.2078C42.5763 11.3854 46.7632 11.5478 50.1875 12.5469ZM29.2187 22.3437C26.1458 26.0401 24.5276 31.1326 24.9219 35.9219C25.3473 40.0129 26.7661 43.8535 29.5625 46.9219C29.6673 47.0508 29.7721 47.1798 29.88 47.3126C32.9297 51.0032 37.5628 52.9233 42.2067 53.5337C47.3597 54.0229 52.2999 52.3453 56.2805 49.1047C60.2683 45.753 62.5182 41.0602 63.0781 35.9219C63.4958 30.9444 61.7632 25.9961 58.6094 22.1719C55.3005 18.3947 50.6605 15.7802 45.5941 15.437C39.1487 15.1373 33.5182 17.49 29.2187 22.3437Z"
      fill="black" />
    <path
      d="M44.0967 21.3768C44.221 21.3746 44.3453 21.3724 44.4733 21.3701C45.2368 21.5958 45.6543 22.2354 46.0475 22.8954C46.1517 23.1004 46.254 23.3064 46.3546 23.5132C46.4097 23.6236 46.4649 23.7339 46.5218 23.8477C46.6374 24.0798 46.7522 24.3124 46.8662 24.5454C47.0394 24.899 47.2156 25.2512 47.3922 25.6032C47.5048 25.8303 47.6173 26.0574 47.7296 26.2847C47.7815 26.3885 47.8334 26.4924 47.8869 26.5995C48.2233 27.2912 48.4483 27.962 48.6406 28.703C48.7997 28.7198 48.9588 28.7367 49.1227 28.754C50.7282 28.9301 52.3278 29.1456 53.9258 29.3798C54.1201 29.4068 54.3143 29.4339 54.5145 29.4618C54.7907 29.5033 54.7907 29.5033 55.0725 29.5456C55.2366 29.5695 55.4007 29.5934 55.5698 29.6181C56.2031 29.7775 56.7195 30.0217 57.1162 30.5507C57.353 31.3255 57.3468 31.9203 56.9766 32.6454C56.2349 33.5539 55.4057 34.3529 54.5166 35.1161C54.4058 35.2138 54.295 35.3115 54.1809 35.4122C53.8855 35.6719 53.5857 35.9265 53.2839 36.1789C53.1073 36.3363 52.9309 36.4941 52.7549 36.6522C52.5898 36.7949 52.4248 36.9376 52.2547 37.0846C51.7269 37.9267 51.9098 38.5813 52.0781 39.5311C52.128 39.8268 52.128 39.8268 52.179 40.1284C52.3299 40.9922 52.4907 41.8539 52.6555 42.7152C53.0342 44.7968 53.0342 44.7968 52.7656 45.8905C52.2275 46.5205 51.9271 46.7305 51.0991 46.8137C50.2629 46.7905 49.6541 46.4718 48.9333 46.0731C48.8034 46.0045 48.6735 45.9358 48.5396 45.865C48.1278 45.647 47.7181 45.4253 47.3086 45.203C46.8964 44.9812 46.4838 44.7603 46.0703 44.541C45.8139 44.4048 45.5583 44.2671 45.3035 44.1278C44.6961 43.8033 44.3591 43.6561 43.6562 43.6561C43.2941 43.7887 43.2941 43.7887 42.9278 43.9838C42.788 44.0544 42.6483 44.125 42.5043 44.1977C42.3563 44.2742 42.2082 44.3507 42.0557 44.4296C41.903 44.5068 41.7502 44.5839 41.5929 44.6635C40.8766 45.0275 40.1669 45.3996 39.4675 45.7952C39.2972 45.8904 39.2972 45.8904 39.1236 45.9875C38.8202 46.1588 38.519 46.3341 38.218 46.5095C37.4892 46.8129 37.05 46.8193 36.2656 46.7499C35.6748 46.4061 35.6748 46.4061 35.2344 45.8905C35.0354 44.8979 35.0814 44.082 35.2713 43.0955C35.2944 42.966 35.3176 42.8364 35.3414 42.703C35.4148 42.2934 35.4909 41.8845 35.5674 41.4755C35.6428 41.0646 35.7175 40.6536 35.7915 40.2424C35.8375 39.9878 35.8843 39.7334 35.9321 39.4792C36.1123 38.5635 36.1123 38.5635 36.0938 37.6405C35.8352 37.261 35.8352 37.261 35.4653 36.9221C35.332 36.7907 35.1986 36.6594 35.0612 36.524C34.9198 36.3891 34.7784 36.2541 34.6328 36.1151C34.4968 35.9815 34.3607 35.8479 34.2206 35.7103C33.4719 34.98 32.7059 34.2766 31.9093 33.5989C31.2459 33.0033 30.7901 32.4653 30.7227 31.5712C30.7701 30.8715 30.8087 30.5935 31.2812 30.078C32.6063 29.5278 33.9927 29.3532 35.4038 29.1563C35.806 29.1001 36.2078 29.0419 36.6097 28.9833C36.8667 28.9464 37.1238 28.9096 37.3808 28.8729C37.5002 28.8557 37.6196 28.8385 37.7427 28.8208C38.2908 28.7447 38.8041 28.703 39.3594 28.703C39.4045 28.5583 39.4497 28.4137 39.4962 28.2646C39.7158 27.6354 39.9796 27.0372 40.2644 26.4357C40.3187 26.321 40.373 26.2062 40.4289 26.088C40.5435 25.8467 40.6585 25.6056 40.7739 25.3647C40.8907 25.1198 41.0063 24.8743 41.1208 24.6282C41.2877 24.2699 41.4578 23.9132 41.6287 23.5568C41.7037 23.3935 41.7037 23.3935 41.7802 23.2269C42.2416 22.2818 42.9534 21.3564 44.0967 21.3768ZM43.8281 27.4999C43.7806 27.6047 43.733 27.7096 43.684 27.8176C43.4654 28.2963 43.244 28.7735 43.0225 29.2509C42.9477 29.4158 42.8729 29.5808 42.7959 29.7507C41.9882 31.4798 41.9882 31.4798 41.25 31.9686C40.5304 32.1585 39.8072 32.2542 39.0693 32.3446C38.6782 32.396 38.2872 32.4485 37.8964 32.5024C37.7237 32.5239 37.5509 32.5454 37.373 32.5676C36.9244 32.6223 36.9244 32.6223 36.6094 32.9999C37.0305 33.4309 37.4535 33.8601 37.877 34.2889C37.997 34.4119 38.1171 34.5349 38.2408 34.6616C38.4137 34.836 38.4137 34.836 38.59 35.014C38.7493 35.1761 38.7493 35.1761 38.9118 35.3413C39.1704 35.6153 39.1704 35.6153 39.5312 35.578C40.236 36.8994 39.849 38.5727 39.6172 39.9823C39.5926 40.1385 39.568 40.2947 39.5427 40.4556C39.4827 40.8352 39.4216 41.2145 39.3594 41.5936C39.8287 41.3758 40.2977 41.1573 40.7666 40.9384C40.8988 40.8771 41.0309 40.8158 41.1671 40.7527C41.8492 40.4336 42.4977 40.0968 43.1406 39.703C44.1835 39.3392 44.9469 39.7719 45.8906 40.2186C46.8128 40.6661 47.7279 41.1271 48.6406 41.5936C48.5871 41.214 48.5333 40.8345 48.4795 40.455C48.4346 40.1379 48.4346 40.1379 48.3889 39.8145C48.3316 39.4243 48.2704 39.0347 48.2029 38.6462C48.0516 37.6941 47.9599 36.805 48.3613 35.911C48.9058 35.3017 49.5006 34.7729 50.1157 34.2359C50.5986 33.7982 50.9941 33.3436 51.3906 32.828C50.6235 32.6433 49.8643 32.4836 49.0824 32.3768C48.9464 32.3573 48.8105 32.3378 48.6704 32.3176C48.3965 32.2789 48.1222 32.2429 47.8475 32.2101C47.208 32.1172 46.8173 32.0165 46.2834 31.637C45.7293 30.8925 45.3596 30.0938 44.9775 29.2509C44.8994 29.0826 44.8213 28.9143 44.7409 28.7409C44.5495 28.328 44.3599 27.9143 44.1719 27.4999C44.0584 27.4999 43.945 27.4999 43.8281 27.4999Z"
      fill="black" />
  </symbol>

  <symbol id="cup" viewBox="0 0 88 88" fill="none">
    <path
      d="M2.39772 30.0476C2.53888 30.0465 2.68005 30.0454 2.82549 30.0442C3.29379 30.0408 3.76208 30.0388 4.2304 30.0371C4.39019 30.0364 4.54998 30.0357 4.71461 30.035C5.56033 30.0314 6.40604 30.0289 7.25176 30.0273C8.12566 30.0254 8.99949 30.0195 9.87336 30.0127C10.545 30.0082 11.2166 30.0068 11.8882 30.0061C12.2104 30.0053 12.5325 30.0033 12.8547 30.0001C13.3056 29.9959 13.7564 29.9961 14.2074 29.9973C14.3404 29.9951 14.4734 29.9929 14.6104 29.9906C15.2487 29.9968 15.6071 30.0565 16.1491 30.4054C16.729 31.0007 16.7394 31.4634 16.733 32.2675C16.6352 32.8894 16.302 33.1512 15.8125 33.5156C15.2229 33.7121 14.7716 33.7081 14.1497 33.707C14.0339 33.707 13.9182 33.707 13.7989 33.707C13.4167 33.7069 13.0345 33.7056 12.6523 33.7042C12.3871 33.7039 12.122 33.7037 11.8568 33.7035C11.1592 33.7028 10.4615 33.7011 9.7639 33.6992C9.05192 33.6975 8.33993 33.6967 7.62795 33.6958C6.23113 33.694 4.83431 33.6911 3.43749 33.6874C3.4522 35.3105 3.46858 36.9334 3.48691 38.5564C3.49538 39.3106 3.50334 40.0648 3.51 40.819C3.54658 45.0971 3.54658 45.0971 3.76445 49.369C3.77726 49.547 3.79007 49.725 3.80326 49.9084C4.41305 57.3277 7.86905 64.0524 12.8906 69.4374C13.0774 69.6412 13.0774 69.6412 13.2679 69.849C14.43 71.0682 15.7357 72.1076 17.1083 73.0814C17.3949 73.2909 17.6738 73.511 17.945 73.74C19.5244 74.9716 20.8896 74.9624 22.8245 74.9435C23.1465 74.9454 23.4686 74.9478 23.7907 74.9508C24.6601 74.957 25.5292 74.9546 26.3986 74.9503C27.3115 74.9468 28.2244 74.95 29.1373 74.9522C30.67 74.9547 32.2025 74.9514 33.7352 74.9448C35.5031 74.9373 37.2709 74.9398 39.0389 74.9473C40.5611 74.9536 42.0833 74.9545 43.6055 74.9509C44.5128 74.9487 45.42 74.9484 46.3272 74.953C47.1806 74.957 48.0336 74.9542 48.8869 74.9462C49.1987 74.9444 49.5105 74.9449 49.8222 74.948C51.8632 74.9661 53.0549 74.7503 54.6562 73.3906C54.8611 73.2412 55.0668 73.093 55.2739 72.9468C56.5659 71.9552 57.7737 70.9039 58.9531 69.7812C59.0832 69.6622 59.2132 69.5432 59.3472 69.4207C65.7354 63.3815 68.3589 54.5024 68.6027 45.9689C68.6486 44.105 68.6649 42.2404 68.6814 40.376C68.6884 39.6187 68.6971 38.8614 68.7057 38.1042C68.7221 36.6319 68.7366 35.1597 68.75 33.6874C68.475 33.6882 68.475 33.6882 68.1945 33.6889C63.7363 33.7003 59.278 33.7088 54.8198 33.7142C52.6638 33.7168 50.5078 33.7204 48.3518 33.7263C46.4729 33.7315 44.5939 33.7348 42.7149 33.736C41.7199 33.7366 40.7248 33.7382 39.7298 33.742C38.7933 33.7455 37.8569 33.7465 36.9205 33.7458C36.5767 33.7459 36.2329 33.7469 35.8891 33.7489C35.4198 33.7515 34.9505 33.7509 34.4812 33.7495C34.2771 33.7517 34.2771 33.7517 34.0688 33.754C33.246 33.7473 32.6799 33.6296 31.9687 33.1718C31.5083 32.4811 31.5053 31.9212 31.625 31.1093C31.9333 30.616 32.1376 30.3374 32.6562 30.0781C33.1566 30.0601 33.6529 30.0527 34.1534 30.0528C34.3103 30.0521 34.4672 30.0515 34.6289 30.0509C35.1578 30.049 35.6868 30.0483 36.2158 30.0476C36.5938 30.0466 36.9717 30.0454 37.3497 30.0442C38.3788 30.0412 39.4079 30.0394 40.4371 30.038C41.0795 30.0371 41.722 30.0361 42.3644 30.035C44.2577 30.0319 46.151 30.0294 48.0443 30.0281C48.3908 30.0278 48.7374 30.0276 49.0839 30.0273C49.256 30.0272 49.256 30.0272 49.4316 30.0271C51.2904 30.0257 53.1492 30.0213 55.0081 30.0157C56.9159 30.01 58.8237 30.007 60.7316 30.0064C61.803 30.006 62.8744 30.0044 63.9458 30.0001C64.9535 29.9961 65.9612 29.9954 66.9689 29.9972C67.3391 29.9972 67.7093 29.9962 68.0795 29.9938C68.5842 29.9908 69.0888 29.992 69.5936 29.9942C69.8142 29.9914 69.8142 29.9914 70.0392 29.9885C70.7328 29.9961 71.073 30.0253 71.6729 30.4056C72.2172 30.9773 72.2082 31.3095 72.2043 32.0828C72.2037 32.2756 72.2032 32.4683 72.2026 32.6669C72.2012 32.869 72.1997 33.0711 72.1982 33.2792C72.1975 33.4826 72.1967 33.686 72.1959 33.8956C72.1939 34.3991 72.191 34.9027 72.1875 35.4062C72.3682 35.4047 72.549 35.4031 72.7352 35.4016C74.4396 35.3876 76.1441 35.3773 77.8485 35.3706C78.7248 35.367 79.601 35.3621 80.4773 35.3543C81.3231 35.3469 82.1689 35.3427 83.0148 35.341C83.3373 35.3397 83.6598 35.3372 83.9822 35.3335C84.4344 35.3285 84.8865 35.3278 85.3387 35.3281C85.538 35.3244 85.5381 35.3244 85.7414 35.3207C86.6336 35.3274 87.1428 35.5263 87.8281 36.0937C88.1024 36.6423 88.0268 37.2371 88.0277 37.8398C88.0285 37.9849 88.0294 38.13 88.0303 38.2795C88.0328 38.7618 88.0339 39.2442 88.0349 39.7266C88.0359 40.0629 88.0369 40.3992 88.0379 40.7354C88.0397 41.4427 88.0407 42.15 88.0413 42.8573C88.0422 43.7572 88.0463 44.6571 88.0512 45.557C88.0545 46.2532 88.0553 46.9493 88.0556 47.6455C88.0561 47.9768 88.0575 48.3081 88.0598 48.6393C88.09 53.3754 86.8578 57.6303 83.4762 61.0767C83.3242 61.2267 83.1722 61.3767 83.0156 61.5312C82.8884 61.6581 82.7613 61.7851 82.6302 61.9159C78.9664 65.3717 74.2984 66.2447 69.459 66.1933C69.1718 66.1916 68.8847 66.19 68.5976 66.1886C67.9036 66.1849 67.2096 66.179 66.5156 66.1718C66.44 66.3704 66.44 66.3704 66.3628 66.573C65.0723 69.6696 61.6441 72.6755 59.125 74.7656C59.3276 74.7658 59.5303 74.7661 59.7391 74.7663C61.6485 74.7692 63.5579 74.7765 65.4672 74.7883C66.4489 74.7942 67.4305 74.7985 68.4122 74.7992C69.3595 74.7999 70.3067 74.8048 71.2539 74.8126C71.6154 74.8148 71.9769 74.8155 72.3384 74.8148C72.8446 74.8139 73.3505 74.8184 73.8567 74.8241C74.0811 74.8219 74.0811 74.8219 74.31 74.8196C75.0565 74.8338 75.3643 74.8698 75.9762 75.3359C76.714 76.3471 76.4003 77.9058 76.2366 79.1007C75.6046 82.0541 73.8093 84.5526 71.365 86.2859C69.1391 87.6518 67.0732 88.0524 64.5079 88.0448C64.2712 88.0453 64.0346 88.0459 63.7979 88.0467C63.1508 88.0485 62.5038 88.0481 61.8568 88.0474C61.1576 88.047 60.4585 88.0485 59.7594 88.0498C58.391 88.052 57.0225 88.0523 55.6541 88.0519C54.5414 88.0516 53.4288 88.0519 52.3161 88.0526C52.0783 88.0528 52.0783 88.0528 51.8357 88.0529C51.5137 88.0532 51.1916 88.0534 50.8696 88.0536C47.8508 88.0554 44.8321 88.0551 41.8134 88.054C39.0541 88.0531 36.2948 88.0551 33.5355 88.0583C30.6998 88.0617 27.8641 88.0631 25.0284 88.0624C23.4374 88.0621 21.8463 88.0625 20.2553 88.065C18.9007 88.067 17.5462 88.0673 16.1916 88.0652C15.501 88.0642 14.8105 88.064 14.12 88.066C13.4867 88.0679 12.8535 88.0674 12.2202 88.065C11.885 88.0643 11.5498 88.0661 11.2146 88.0681C7.95666 88.0482 5.2333 86.8477 2.92186 84.5624C1.0097 82.4381 0.0108964 79.9626 -0.0752071 77.1289C-0.0811615 77.0109 -0.0871158 76.8929 -0.0932506 76.7714C-0.0983316 76.1412 -0.0303086 75.8357 0.359566 75.3348C0.978995 74.8423 1.29286 74.8283 2.07713 74.8241C2.19628 74.8223 2.31543 74.8205 2.43819 74.8186C2.82978 74.8137 3.22111 74.8148 3.61272 74.8159C3.88509 74.8137 4.15746 74.811 4.42983 74.8081C5.14499 74.8012 5.86008 74.7994 6.57528 74.7988C7.30575 74.7972 8.03617 74.7907 8.76662 74.7847C10.1986 74.7736 11.6305 74.7679 13.0625 74.7656C12.9891 74.6972 12.9157 74.6288 12.8401 74.5583C12.5033 74.2443 12.1666 73.9302 11.8298 73.6162C11.7144 73.5086 11.599 73.401 11.4801 73.2902C5.03579 67.2786 0.337539 58.7089 -0.0175699 49.7442C-0.0257899 49.2541 -0.0291131 48.7643 -0.030434 48.2742C-0.0315634 48.0892 -0.0326928 47.9043 -0.0338565 47.7138C-0.0372218 47.1069 -0.0392456 46.5001 -0.0409664 45.8933C-0.0416668 45.6853 -0.0423673 45.4773 -0.043089 45.263C-0.0466614 44.1643 -0.0491262 43.0656 -0.0507434 41.9669C-0.0526534 40.832 -0.0585791 39.6971 -0.0653823 38.5622C-0.0698676 37.6887 -0.0713143 36.8153 -0.0719324 35.9418C-0.0727705 35.5232 -0.0747714 35.1046 -0.0779546 34.6861C-0.0821252 34.1019 -0.0819851 33.5179 -0.080788 32.9336C-0.0829897 32.7608 -0.0851914 32.5879 -0.0874599 32.4098C-0.0818203 31.6562 -0.0739427 31.2297 0.327302 30.5764C0.979908 29.9849 1.55603 30.0506 2.39772 30.0476ZM72.1875 39.0156C72.1875 40.0932 72.1875 41.1709 72.1875 42.2812C72.4173 42.2837 72.6471 42.2862 72.8838 42.2888C73.7375 42.2988 74.5911 42.312 75.4448 42.3263C75.814 42.332 76.1833 42.3368 76.5526 42.3407C77.0838 42.3465 77.6149 42.3555 78.146 42.3651C78.3108 42.3662 78.4755 42.3673 78.6453 42.3684C79.4889 42.387 80.1038 42.4057 80.7812 42.9687C80.9805 43.3673 80.979 43.6081 80.9863 44.0521C80.989 44.2055 80.9918 44.3589 80.9946 44.5169C81.0023 45.2273 81.0093 45.9377 81.0133 46.6481C81.0161 47.02 81.0208 47.3918 81.0274 47.7636C81.0814 50.816 80.8868 53.2313 78.8906 55.6874C78.7347 55.8991 78.7347 55.8991 78.5757 56.1151C76.8906 58.0674 74.3491 58.9691 71.8498 59.1834C71.218 59.2288 70.5858 59.2648 69.9531 59.2968C69.7519 59.7763 69.5515 60.2562 69.3516 60.7363C69.2942 60.8728 69.2368 61.0092 69.1777 61.1498C69.1234 61.2806 69.0691 61.4113 69.0132 61.546C68.9628 61.6666 68.9124 61.7872 68.8604 61.9115C68.7306 62.2182 68.7306 62.2182 68.75 62.5624C73.2181 62.6829 76.8937 62.0845 80.3952 59.0598C83.2816 56.3144 84.4756 52.8393 84.5774 48.9272C84.5822 48.292 84.5819 47.657 84.5793 47.0219C84.5791 46.8177 84.5789 46.6135 84.5788 46.4031C84.5779 45.6486 84.5755 44.8941 84.5732 44.1396C84.5679 41.6032 84.5679 41.6032 84.5625 39.0156C80.4787 39.0156 76.395 39.0156 72.1875 39.0156ZM72.1875 45.8906C72.1733 46.5074 72.1591 47.1242 72.1445 47.7597C72.069 50.093 71.7288 52.3597 71.3281 54.6562C71.2706 54.9999 71.2132 55.3436 71.1562 55.6874C72.8757 55.6807 74.2963 55.1763 75.6142 54.0546C75.7312 53.9128 75.8482 53.771 75.9687 53.6249C76.1141 53.4725 76.2594 53.3201 76.4092 53.163C77.7111 51.5654 77.7156 49.5661 77.6982 47.6093C77.6947 47.0421 77.6911 46.4749 77.6875 45.8906C75.8725 45.8906 74.0575 45.8906 72.1875 45.8906ZM3.78124 78.3749C4.10718 80.3306 5.15854 81.7899 6.70311 83.0156C8.89532 84.4165 11.0716 84.6159 13.6332 84.6061C13.8525 84.6066 14.0718 84.6072 14.2978 84.6077C14.8998 84.6091 15.5019 84.6085 16.1039 84.6074C16.7558 84.6066 17.4077 84.6078 18.0596 84.6088C19.334 84.6103 20.6084 84.6099 21.8829 84.609C22.9192 84.6082 23.9556 84.6081 24.992 84.6084C25.2138 84.6085 25.2138 84.6085 25.4401 84.6086C25.7406 84.6087 26.0411 84.6088 26.3416 84.6089C29.1547 84.6099 31.9678 84.6088 34.781 84.6069C37.1913 84.6054 39.6016 84.6057 42.0118 84.6073C44.8154 84.6091 47.6189 84.6098 50.4225 84.6088C50.7218 84.6087 51.0212 84.6086 51.3205 84.6084C51.5414 84.6084 51.5414 84.6084 51.7667 84.6083C52.801 84.608 53.8353 84.6085 54.8697 84.6093C56.1313 84.6103 57.3929 84.61 58.6546 84.6082C59.2975 84.6073 59.9403 84.6069 60.5832 84.608C61.2819 84.6093 61.9806 84.6078 62.6793 84.6061C62.9802 84.6072 62.9802 84.6072 63.2872 84.6084C66.0641 84.5953 68.4375 84.1687 70.5439 82.2314C71.445 81.2633 72.5312 79.7357 72.5312 78.3749C49.8437 78.3749 27.1562 78.3749 3.78124 78.3749Z"
      fill="black" />
    <path
      d="M45.5469 3.78135C46.5058 4.32411 46.5058 4.32411 46.75 4.8126C46.9129 5.9134 46.6814 6.64045 46.0954 7.572C45.5494 8.46357 45.6318 9.47591 45.7188 10.4845C45.9554 11.4248 46.4459 12.1018 47.0615 12.837C49.0296 15.195 49.5773 17.7964 49.3281 20.797C48.9305 23.0542 47.698 25.0578 46.0625 26.6407C45.5065 26.9188 44.9448 26.9118 44.3438 26.8126C43.773 26.5181 43.3936 26.1458 43.1406 25.545C43.1406 24.45 43.4539 23.8927 44.1504 23.0743C45.2867 21.7045 45.6199 20.3991 45.6382 18.6371C45.4019 17.1096 44.6412 15.9407 43.7422 14.7169C42.1903 12.5062 41.6511 10.5987 41.9375 7.90635C42.2098 6.47549 42.8459 5.20647 43.8281 4.1251C44.4206 3.7619 44.8515 3.6979 45.5469 3.78135Z"
      fill="black" />
    <path
      d="M36.2656 0.000110411C36.8069 0.259438 37.0326 0.449454 37.2506 1.01122C37.4777 2.09466 37.0797 2.78725 36.5141 3.69878C36.0222 4.54298 35.9944 5.40251 36.0938 6.35949C36.4575 7.48231 37.0939 8.38474 37.8018 9.31359C39.4298 11.5319 40.1776 13.9688 39.7958 16.7291C39.3792 18.9518 38.45 20.6618 36.9531 22.3439C36.8683 22.4416 36.7834 22.5393 36.696 22.6399C36.2319 23.0341 35.6483 23.0497 35.0625 23.0314C34.3425 22.7433 33.9994 22.3622 33.6875 21.6564C33.5743 21.1026 33.6056 20.7714 33.8829 20.276C34.1543 19.8713 34.4365 19.4754 34.7188 19.0782C35.6964 17.5773 36.3022 16.2623 36.0938 14.4376C35.7963 13.1366 35.182 12.1693 34.3797 11.1189C32.8943 9.14694 32.1397 7.12108 32.3125 4.64074C32.566 2.99331 33.1633 1.49653 34.2569 0.225696C34.9354 -0.105666 35.5257 -0.127237 36.2656 0.000110411Z"
      fill="black" />
    <path
      d="M26.4687 3.78113C27.4276 4.32389 27.4276 4.32389 27.6719 4.81238C27.7906 5.86367 27.6734 6.43234 27.1562 7.35828C26.5842 8.42765 26.4284 9.28619 26.6406 10.4843C27.0444 11.7416 27.8803 12.7146 28.6769 13.7459C29.8446 15.3861 30.3108 17.1428 30.3037 19.1317C30.3065 19.284 30.3092 19.4364 30.3121 19.5933C30.314 22.1984 29.0654 24.4118 27.3281 26.2968C26.7629 26.7934 26.3718 26.902 25.604 26.8748C25.0719 26.7766 24.7755 26.5054 24.4062 26.1249C24.1235 25.5594 24.1243 25.015 24.2344 24.4061C24.5229 23.8501 24.897 23.3643 25.2656 22.8593C25.4591 22.5572 25.649 22.2529 25.835 21.9462C25.9194 21.8086 26.0038 21.671 26.0908 21.5292C26.7243 20.3343 26.6319 18.7014 26.3754 17.4022C26.0182 16.3826 25.3704 15.5851 24.7024 14.7518C23.0621 12.6912 22.5848 10.4879 22.8594 7.90613C23.1277 6.52916 23.7192 5.1056 24.75 4.12488C25.3499 3.77171 25.7697 3.69725 26.4687 3.78113Z"
      fill="black" />
    <path
      d="M62.6424 44.9231C63.3109 45.0889 63.5401 45.3277 63.9375 45.8906C64.0565 46.5091 64.043 47.1103 64.0234 47.7382C64.0201 47.9151 64.0168 48.092 64.0134 48.2742C63.9692 49.8123 63.7884 51.2727 63.4219 52.7656C63.3877 52.9059 63.3536 53.0463 63.3184 53.191C62.0733 58.1705 59.7279 62.4482 56.2031 66.1718C56.085 66.2977 55.9669 66.4235 55.8453 66.5532C55.3907 66.9753 55.1015 67.0191 54.4844 67.0312C53.7539 66.8207 53.3875 66.6617 52.9375 66.0429C52.7139 65.3162 52.6942 65.011 52.9375 64.2812C53.2747 63.8607 53.6413 63.4784 54.0137 63.0888C57.8049 58.9908 60.0314 53.3163 60.2452 47.7678C60.2915 46.8528 60.4374 46.09 60.9297 45.3105C61.5066 44.9355 61.9664 44.9409 62.6424 44.9231Z"
      fill="black" />
    <path
      d="M49.6719 67.7187C50.2909 68.0263 50.6434 68.4166 50.8857 69.0723C50.8716 69.7777 50.7156 70.2035 50.3594 70.8125C49.7737 71.2384 49.4397 71.3281 48.7158 71.3281C47.9824 71.1148 47.6994 70.9278 47.2656 70.2969C47.0999 69.4946 47.1523 68.9314 47.5879 68.2344C48.2161 67.6431 48.8344 67.582 49.6719 67.7187Z"
      fill="black" />
    <path
      d="M25.2656 30.0781C25.9541 30.4988 26.2398 30.7529 26.4795 31.5283C26.467 32.2423 26.364 32.5886 25.9531 33.1718C25.3666 33.5851 25.0281 33.6875 24.3096 33.6875C23.5762 33.4741 23.2931 33.2871 22.8594 32.6562C22.7387 32.1147 22.734 31.6503 22.8594 31.1093C23.5838 30.1942 24.1071 29.9622 25.2656 30.0781Z"
      fill="black" />
  </symbol>

  <symbol id="coin" viewBox="0 0 88 88" fill="none">
    <path
      d="M29.0469 33.0001C31.3128 33.4787 33.2034 34.8272 34.5039 36.7384C36.5671 40.2583 35.7665 44.6259 35.2344 48.4474C35.1845 48.8193 35.1348 49.1912 35.0853 49.5632C34.9657 50.4592 34.8434 51.3548 34.7187 52.2501C34.8146 52.2495 34.9105 52.2488 35.0092 52.2482C37.3478 52.233 39.6863 52.2216 42.0249 52.2145C43.1559 52.2109 44.2868 52.206 45.4177 52.1982C46.5099 52.1907 47.602 52.1867 48.6941 52.1849C49.1101 52.1836 49.526 52.1811 49.9419 52.1774C50.5261 52.1724 51.1101 52.1717 51.6943 52.1721C51.8649 52.1696 52.0356 52.1671 52.2113 52.1646C53.7675 52.1737 55.131 52.5995 56.2837 53.6761C57.5369 55.07 57.881 56.567 57.8252 58.4168C57.7192 59.8484 57.0223 60.9771 55.9668 61.9181C55.7619 62.0792 55.5552 62.2383 55.3437 62.3907C55.4038 62.5192 55.4638 62.6477 55.5257 62.7801C55.6039 62.9494 55.6821 63.1187 55.7627 63.2931C55.8793 63.5443 55.8793 63.5443 55.9984 63.8006C56.571 65.1449 56.5608 66.6215 56.1172 68.0089C55.7154 69.0062 55.0711 69.7218 54.3125 70.4689C54.1991 70.5823 54.0856 70.6957 53.9687 70.8126C54.0288 70.9287 54.0888 71.0448 54.1507 71.1644C54.2289 71.3177 54.3071 71.471 54.3877 71.629C54.4655 71.7806 54.5432 71.9321 54.6234 72.0882C55.2266 73.3937 55.1753 74.9043 54.7422 76.2589C54.3404 77.2562 53.6961 77.9718 52.9375 78.7188C52.8241 78.8323 52.7106 78.9457 52.5937 79.0626C52.6538 79.1787 52.7138 79.2948 52.7757 79.4144C52.8539 79.5677 52.9321 79.721 53.0127 79.879C53.0905 80.0306 53.1682 80.1821 53.2484 80.3382C53.8487 81.6375 53.8008 83.147 53.3779 84.4981C52.7105 86.113 51.6302 87.1169 50.0553 87.814C49.0598 88.1476 48.072 88.1297 47.0306 88.1304C46.7877 88.1335 46.5449 88.137 46.302 88.1408C45.6461 88.1498 44.9903 88.1533 44.3344 88.1552C43.9207 88.1565 43.5071 88.1591 43.0935 88.1619C41.6388 88.172 40.1842 88.1771 38.7295 88.1782C37.54 88.1792 36.3508 88.1876 35.1614 88.2029C22.3619 88.3639 22.3619 88.3639 16.6719 85.9376C16.653 86.0577 16.6342 86.1778 16.6148 86.3015C16.5876 86.4579 16.5603 86.6143 16.5322 86.7755C16.5063 86.931 16.4804 87.0866 16.4537 87.2468C16.3281 87.6563 16.3281 87.6563 15.8125 88.0001C15.3283 88.0353 14.8609 88.0506 14.3764 88.05C14.23 88.0512 14.0835 88.0523 13.9325 88.0535C13.4476 88.0568 12.9627 88.0575 12.4777 88.0578C12.141 88.0589 11.8043 88.0601 11.4676 88.0613C10.7615 88.0634 10.0554 88.064 9.34927 88.0638C8.44395 88.0638 7.53872 88.0685 6.63341 88.0744C5.93791 88.0782 5.24242 88.0789 4.5469 88.0787C4.2131 88.0791 3.8793 88.0806 3.54552 88.0833C3.07888 88.0867 2.61244 88.0857 2.14579 88.0836C2.00764 88.0855 1.8695 88.0875 1.72716 88.0895C1.16068 88.083 0.777135 88.0637 0.308367 87.731C-0.102784 87.1732 -0.095784 86.7008 -0.0873026 86.0339C-0.0883751 85.9047 -0.089447 85.7755 -0.090552 85.6423C-0.0932957 85.2089 -0.0911221 84.7757 -0.0889601 84.3424C-0.0898916 84.0318 -0.0911157 83.7213 -0.0926108 83.4107C-0.0957483 82.567 -0.0945294 81.7233 -0.0923511 80.8795C-0.0906124 79.9972 -0.0922233 79.1148 -0.0933031 78.2324C-0.0945545 76.7506 -0.0929041 75.2687 -0.0896315 73.7868C-0.0858899 72.0728 -0.0871024 70.3588 -0.0908877 68.6448C-0.094006 67.174 -0.0944474 65.7033 -0.0926475 64.2325C-0.0915748 63.3537 -0.0914357 62.4749 -0.0937044 61.5961C-0.0956882 60.7699 -0.0943169 59.9439 -0.0903396 59.1177C-0.0894293 58.8143 -0.0896937 58.5108 -0.0912077 58.2073C-0.0930818 57.7935 -0.090736 57.38 -0.0873026 56.9663C-0.0888363 56.8457 -0.0903698 56.7251 -0.0919499 56.6009C-0.082799 56.0338 -0.0318823 55.7308 0.308438 55.2694C0.884014 54.8605 1.46301 54.9043 2.14306 54.9111C2.28958 54.9099 2.4361 54.9087 2.58706 54.9075C3.07112 54.9045 3.555 54.9065 4.03906 54.9088C4.37554 54.9083 4.71201 54.9077 5.04849 54.9068C5.75358 54.9058 6.45861 54.9073 7.1637 54.9105C8.06767 54.9144 8.97151 54.9121 9.87549 54.908C10.5703 54.9055 11.265 54.9063 11.9598 54.9081C12.2931 54.9086 12.6264 54.908 12.9597 54.9064C13.4255 54.9047 13.8911 54.9073 14.3569 54.9111C14.5637 54.9091 14.5637 54.9091 14.7747 54.9069C15.3913 54.9163 15.7434 54.9481 16.243 55.3241C16.5501 55.7585 16.5739 55.9784 16.543 56.504C16.5368 56.6414 16.5306 56.7787 16.5242 56.9203C16.5162 57.024 16.5082 57.1276 16.5 57.2345C18.6505 55.8316 20.2113 54.1283 20.9028 51.6389C20.9445 51.4926 20.9862 51.3462 21.0292 51.1955C21.1669 50.7117 21.3028 50.2274 21.4387 49.7431C21.5352 49.4031 21.6317 49.0632 21.7284 48.7232C21.9833 47.826 22.2368 46.9283 22.4899 46.0305C22.8921 44.6048 23.2965 43.1798 23.7009 41.7547C23.8402 41.2631 23.9789 40.7712 24.1175 40.2793C24.3822 39.3415 24.651 38.4049 24.9219 37.4689C24.9732 37.2907 25.0245 37.1125 25.0774 36.9289C25.2358 36.3815 25.3968 35.8349 25.5585 35.2884C25.6319 35.034 25.6319 35.034 25.7067 34.7744C25.7773 34.5386 25.7773 34.5386 25.8493 34.298C25.8902 34.1592 25.931 34.0203 25.9731 33.8772C26.5194 32.5771 27.8483 32.8897 29.0469 33.0001ZM28.5312 36.0939C27.8231 38.3611 27.1547 40.6381 26.508 42.9235C26.3812 43.3716 26.2541 43.8195 26.127 44.2674C25.5995 46.1251 25.5995 46.1251 25.0757 47.9839C24.8599 48.7524 24.642 49.5202 24.4229 50.2877C24.341 50.576 24.2598 50.8646 24.1794 51.1533C23.258 54.4588 21.8279 57.6343 18.7183 59.4326C17.9797 59.8108 17.3069 60.1265 16.5 60.3282C16.5 67.7584 16.5 75.1885 16.5 82.8438C23.4968 84.9845 23.4968 84.9845 30.4102 85.5111C31.0331 85.4973 31.656 85.498 32.2791 85.4966C33.3148 85.4924 34.3501 85.4796 35.3857 85.4599C36.8427 85.4323 38.2994 85.4224 39.7566 85.4151C40.7798 85.4094 41.803 85.3995 42.8262 85.3889C43.0708 85.3863 43.3155 85.3839 43.5601 85.3816C44.3579 85.374 45.1554 85.3616 45.9531 85.3468C46.1512 85.3449 46.3494 85.343 46.5536 85.341C48.3758 85.3069 48.3758 85.3069 49.9501 84.4851C50.6486 83.6703 50.7643 83.1193 50.7508 82.0771C50.6801 81.4302 50.4483 81.0876 50.0156 80.6095C48.945 79.7666 48.0293 79.7267 46.7057 79.7138C46.4288 79.709 46.152 79.7041 45.8752 79.6991C45.441 79.692 45.0069 79.6856 44.5728 79.6811C44.1522 79.6764 43.7317 79.6685 43.3112 79.6601C43.1812 79.6596 43.0512 79.659 42.9173 79.6584C42.0204 79.6373 42.0204 79.6373 41.5981 79.3361C41.3781 78.9946 41.3528 78.7798 41.3574 78.3751C41.3561 78.2581 41.3548 78.1411 41.3534 78.0206C41.443 77.585 41.5936 77.4493 41.9375 77.172C42.2762 77.1069 42.2762 77.1069 42.6657 77.1058C42.8121 77.1041 42.9585 77.1024 43.1093 77.1006C43.2672 77.1011 43.4251 77.1016 43.5878 77.1021C43.7512 77.1003 43.9147 77.0984 44.0831 77.0965C44.6068 77.0906 45.1305 77.0879 45.6543 77.086C46.3405 77.0835 47.0266 77.0777 47.7128 77.0699C47.8686 77.0704 48.0244 77.071 48.1849 77.0715C49.2629 77.059 50.4852 76.9856 51.3266 76.235C52.0225 75.4183 52.1393 74.8697 52.1258 73.8271C52.0551 73.1802 51.8233 72.8376 51.3906 72.3595C50.32 71.5166 49.4043 71.4767 48.0807 71.4638C47.8038 71.459 47.527 71.4541 47.2502 71.4491C46.816 71.442 46.3819 71.4356 45.9478 71.4311C45.5272 71.4264 45.1067 71.4185 44.6862 71.4101C44.5562 71.4096 44.4262 71.409 44.2923 71.4084C43.3954 71.3873 43.3954 71.3873 42.9731 71.0861C42.7531 70.7446 42.7278 70.5298 42.7324 70.1251C42.7311 70.0081 42.7298 69.8911 42.7284 69.7706C42.818 69.335 42.9686 69.1993 43.3125 68.922C43.6512 68.8569 43.6512 68.8569 44.0407 68.8558C44.1871 68.8541 44.3335 68.8524 44.4843 68.8506C44.6422 68.8511 44.8001 68.8516 44.9628 68.8522C45.1262 68.8503 45.2897 68.8484 45.4581 68.8465C45.9818 68.8406 46.5055 68.8379 47.0293 68.836C47.7155 68.8335 48.4016 68.8277 49.0878 68.8199C49.2436 68.8204 49.3994 68.821 49.5599 68.8215C50.6379 68.809 51.8602 68.7356 52.7016 67.985C53.3975 67.1683 53.5143 66.6197 53.5008 65.5771C53.4301 64.9302 53.1983 64.5876 52.7656 64.1095C51.695 63.2666 50.7793 63.2267 49.4557 63.2138C49.1788 63.209 48.902 63.2041 48.6252 63.1991C48.191 63.192 47.7569 63.1856 47.3228 63.1811C46.9022 63.1764 46.4817 63.1685 46.0612 63.1601C45.9312 63.1596 45.8012 63.159 45.6673 63.1584C44.7704 63.1373 44.7704 63.1373 44.3481 62.8361C44.1281 62.4946 44.1028 62.2798 44.1074 61.8751C44.1061 61.7581 44.1048 61.6411 44.1034 61.5206C44.193 61.085 44.3436 60.9493 44.6875 60.672C45.0262 60.6069 45.0262 60.6069 45.4157 60.6058C45.5621 60.6041 45.7085 60.6024 45.8593 60.6006C46.0172 60.6011 46.1751 60.6016 46.3378 60.6022C46.5012 60.6003 46.6647 60.5984 46.8331 60.5965C47.3568 60.5906 47.8805 60.5879 48.4043 60.586C49.0905 60.5835 49.7766 60.5777 50.4628 60.5699C50.6186 60.5704 50.7744 60.571 50.9349 60.5715C52.0129 60.559 53.2352 60.4856 54.0766 59.735C54.7725 58.9183 54.8893 58.3697 54.8758 57.3271C54.8051 56.6802 54.5733 56.3376 54.1406 55.8595C53.2441 55.1537 52.5128 54.9798 51.3932 54.9764C51.225 54.9754 51.0568 54.9745 50.8835 54.9735C50.6097 54.9733 50.6097 54.9733 50.3304 54.973C50.1367 54.9721 49.9429 54.9712 49.7433 54.9703C49.323 54.9685 48.9028 54.967 48.4826 54.9659C47.8181 54.9638 47.1537 54.9605 46.4893 54.9567C44.6003 54.9461 42.7114 54.9368 40.8224 54.9311C39.6669 54.9276 38.5114 54.9215 37.3558 54.9138C36.9149 54.9114 36.474 54.9099 36.0331 54.9093C35.4179 54.9085 34.8028 54.9045 34.1876 54.8998C33.9128 54.9006 33.9128 54.9006 33.6324 54.9014C33.4651 54.8995 33.2979 54.8976 33.1256 54.8956C32.9802 54.895 32.8348 54.8945 32.6849 54.8939C32.2269 54.8131 32.0775 54.677 31.7969 54.3126C31.6044 53.6854 31.6281 53.1662 31.7159 52.5212C31.74 52.3386 31.7641 52.1559 31.789 51.9677C31.8162 51.7713 31.8434 51.5749 31.8714 51.3726C31.9268 50.9509 31.9822 50.5291 32.0376 50.1074C32.1259 49.447 32.2149 48.7868 32.3047 48.1267C33.223 42.8538 33.223 42.8538 31.6787 37.92C30.8174 36.8755 29.8607 36.2939 28.5312 36.0939ZM2.75 57.7501C2.75 66.8251 2.75 75.9001 2.75 85.2501C6.38 85.2501 10.01 85.2501 13.75 85.2501C13.75 76.1751 13.75 67.1001 13.75 57.7501C10.12 57.7501 6.49 57.7501 2.75 57.7501Z"
      fill="black" />
    <path
      d="M55.8594 5.40876C56.0094 5.4081 56.1594 5.40744 56.314 5.40676C56.6306 5.4063 56.9473 5.40756 57.264 5.41044C57.7484 5.41412 58.2324 5.41047 58.7169 5.40607C59.0248 5.40653 59.3327 5.40741 59.6407 5.40876C59.7854 5.40737 59.93 5.40597 60.0791 5.40454C60.7126 5.41468 61.0822 5.43254 61.6238 5.77953C61.9557 6.31858 61.9537 6.67638 61.9422 7.30744C61.94 7.52235 61.9378 7.73726 61.9355 7.95868C61.9297 8.18246 61.924 8.40623 61.918 8.63679C61.9149 8.86322 61.9118 9.08965 61.9086 9.32294C61.9005 9.88211 61.8892 10.441 61.8751 11.0001C62.0293 10.9965 62.1835 10.9929 62.3423 10.9892C62.9202 10.9774 63.498 10.9688 64.0759 10.9623C64.325 10.9589 64.574 10.9542 64.823 10.9482C66.44 10.9103 67.6802 10.9006 68.9636 12.0253C69.0562 12.1372 69.1488 12.249 69.2442 12.3643C69.3395 12.4758 69.4347 12.5872 69.5329 12.702C70.3028 13.8194 70.241 15.017 70.1251 16.3282C69.8362 17.4728 69.0141 18.2507 68.0626 18.9063C67.3992 19.2238 66.8688 19.2938 66.1362 19.2967C65.9245 19.2984 65.7127 19.3002 65.4946 19.302C65.3823 19.3022 65.27 19.3023 65.1543 19.3025C64.8 19.3031 64.4458 19.306 64.0915 19.3095C63.0846 19.319 62.0777 19.3243 61.0708 19.3285C60.4535 19.3312 59.8363 19.3365 59.219 19.3431C58.8724 19.346 58.5258 19.3461 58.1792 19.3461C57.0057 19.3587 55.8889 19.3828 54.8282 19.9376C54.039 20.7465 53.9078 21.3245 53.9205 22.4224C53.9915 23.0643 54.2281 23.4162 54.6563 23.8907C55.5235 24.5355 56.3591 24.5975 57.415 24.6024C61.3454 24.655 64.1961 25.1757 67.1548 27.9519C69.5565 30.4481 70.2234 33.3424 70.166 36.682C70.0737 39.4258 68.8581 41.8086 66.9568 43.7651C65.5067 45.1026 63.8386 46.1009 61.8751 46.4063C61.8805 46.6352 61.8805 46.6352 61.886 46.8687C61.8977 47.4364 61.9063 48.0038 61.9128 48.5715C61.9163 48.817 61.921 49.0623 61.9269 49.3077C61.9353 49.661 61.9392 50.0141 61.9422 50.3675C61.9476 50.6861 61.9476 50.6861 61.9531 51.0112C61.8751 51.5626 61.8751 51.5626 61.6238 51.9753C60.9745 52.3843 60.394 52.3486 59.6407 52.3414C59.4907 52.342 59.3407 52.3427 59.1862 52.3434C58.8695 52.3438 58.5528 52.3426 58.2361 52.3397C57.7517 52.336 57.2677 52.3397 56.7833 52.3441C56.4753 52.3436 56.1674 52.3427 55.8594 52.3414C55.7148 52.3428 55.5701 52.3442 55.421 52.3456C54.7875 52.3355 54.418 52.3176 53.8763 51.9706C53.5444 51.4316 53.5464 51.0738 53.5579 50.4427C53.5601 50.2278 53.5623 50.0129 53.5646 49.7914C53.5704 49.5677 53.5762 49.3439 53.5821 49.1133C53.5852 48.8869 53.5883 48.6605 53.5915 48.4272C53.5996 47.868 53.6109 47.3091 53.6251 46.7501C53.4709 46.7537 53.3166 46.7573 53.1578 46.761C52.5799 46.7728 52.0021 46.7813 51.4242 46.7878C51.1751 46.7913 50.9261 46.7959 50.6771 46.8019C49.0601 46.8398 47.8199 46.8495 46.5366 45.7249C46.3976 45.557 46.3976 45.557 46.2559 45.3858C46.1606 45.2744 46.0654 45.1629 45.9672 45.0481C45.1973 43.9307 45.2591 42.7331 45.3751 41.4219C45.664 40.2773 46.486 39.4994 47.4376 38.8438C48.1009 38.5264 48.6313 38.4563 49.3639 38.4534C49.6815 38.4508 49.6815 38.4508 50.0055 38.4481C50.1178 38.448 50.2301 38.4478 50.3458 38.4477C50.7001 38.447 51.0544 38.4441 51.4086 38.4406C52.4155 38.4312 53.4224 38.4259 54.4293 38.4216C55.0466 38.4189 55.6638 38.4137 56.2811 38.4071C56.6277 38.4041 56.9743 38.404 57.3209 38.404C58.4944 38.3914 59.6112 38.3673 60.6719 37.8126C61.4611 37.0037 61.5923 36.4257 61.5796 35.3278C61.5087 34.6859 61.272 34.3339 60.8438 33.8594C59.9861 33.2217 59.1553 33.1532 58.1106 33.1417C54.3286 33.072 51.3406 32.5771 48.4688 29.9063C46.1983 27.5453 45.2846 24.6803 45.3025 21.461C45.3884 18.3207 46.7969 15.6981 49.0435 13.5339C50.373 12.3987 51.8928 11.6088 53.6251 11.3438C53.6215 11.1912 53.6179 11.0386 53.6141 10.8814C53.6024 10.3138 53.5938 9.74629 53.5873 9.17859C53.5838 8.93318 53.5792 8.68778 53.5732 8.44242C53.5648 8.08912 53.5609 7.73601 53.5579 7.38264C53.5543 7.17022 53.5507 6.9578 53.547 6.73894C53.6251 6.18757 53.6251 6.18757 53.8763 5.77483C54.5256 5.36585 55.1061 5.40151 55.8594 5.40876ZM56.3751 8.25007C56.3684 8.78081 56.3684 8.78081 56.3616 9.32227C56.3545 9.66529 56.3473 10.0083 56.3394 10.3513C56.3345 10.5895 56.3309 10.8277 56.3285 11.066C56.3248 11.4086 56.3164 11.7512 56.3079 12.0938C56.3043 12.2999 56.3007 12.506 56.297 12.7184C56.2032 13.2344 56.2032 13.2344 55.8842 13.5529C55.4188 13.8019 54.9618 13.9347 54.4522 14.0723C52.2776 14.7203 50.5477 15.8915 49.3389 17.8536C48.2316 19.9219 47.9371 22.0693 48.5655 24.3526C49.3657 26.6472 50.8085 28.3758 52.9913 29.4659C54.4415 30.0735 55.818 30.2374 57.3727 30.283C57.5529 30.2885 57.7331 30.2941 57.9187 30.2999C58.2776 30.3094 58.6366 30.3157 58.9957 30.3181C60.6466 30.3542 62.0778 30.7693 63.2501 31.9688C64.4305 33.557 64.654 35.1931 64.4532 37.1251C64.1226 38.5226 63.4322 39.5574 62.2295 40.3477C61.3202 40.9079 60.4539 41.1207 59.3896 41.1248C59.1728 41.1266 58.9559 41.1283 58.7325 41.1301C58.618 41.1303 58.5034 41.1304 58.3854 41.1306C58.024 41.1312 57.6627 41.1341 57.3013 41.1376C56.2745 41.1471 55.2477 41.1524 54.2209 41.1566C53.5912 41.1594 52.9615 41.1646 52.3317 41.1712C52.0927 41.1732 51.8537 41.1742 51.6147 41.1742C51.28 41.1743 50.9453 41.1777 50.6105 41.1812C50.4205 41.1821 50.2305 41.183 50.0347 41.1838C49.4171 41.2603 49.0001 41.446 48.4688 41.7657C48.2247 42.254 48.2429 42.6001 48.2969 43.1407C48.6806 43.6302 48.9071 43.8024 49.5001 44.0001C49.9631 44.0204 50.4226 44.0319 50.8858 44.0363C51.1638 44.0411 51.4417 44.0461 51.7197 44.0511C52.1576 44.0582 52.5955 44.0645 53.0334 44.0691C53.4563 44.0738 53.879 44.0817 54.3018 44.09C54.4329 44.0906 54.5639 44.0912 54.699 44.0917C55.1945 44.1033 55.5906 44.1165 56.0265 44.3659C56.2885 44.8428 56.2789 45.2489 56.2911 45.7907C56.2972 46.0061 56.3033 46.2216 56.3096 46.4436C56.3154 46.7814 56.3154 46.7814 56.3213 47.126C56.327 47.3556 56.333 47.5851 56.3391 47.8146C56.3533 48.3763 56.3645 48.9382 56.3751 49.5001C57.2826 49.5001 58.1901 49.5001 59.1251 49.5001C59.1317 48.9693 59.1317 48.9693 59.1385 48.4279C59.1457 48.0848 59.1528 47.7418 59.1607 47.3988C59.1656 47.1606 59.1692 46.9224 59.1716 46.6841C59.1753 46.3415 59.1837 45.9989 59.1922 45.6564C59.1958 45.4503 59.1994 45.2441 59.2031 45.0318C59.2969 44.5157 59.2969 44.5157 59.6159 44.1972C60.0813 43.9482 60.5384 43.8154 61.0479 43.6778C63.2225 43.0298 64.9524 41.8586 66.1612 39.8966C67.2685 37.8282 67.563 35.6809 66.9346 33.3975C66.1344 31.1029 64.6916 29.3743 62.5088 28.2842C61.0586 27.6766 59.6821 27.5127 58.1274 27.4672C57.9472 27.4616 57.767 27.456 57.5814 27.4503C57.2225 27.4407 56.8635 27.4345 56.5044 27.432C54.8536 27.396 53.4223 26.9808 52.2501 25.7813C51.0696 24.1931 50.8461 22.5571 51.0469 20.6251C51.3775 19.2276 52.0679 18.1927 53.2706 17.4024C54.1799 16.8422 55.0462 16.6294 56.1105 16.6253C56.3274 16.6236 56.5442 16.6218 56.7676 16.62C56.9394 16.6198 56.9394 16.6198 57.1147 16.6195C57.4761 16.6189 57.8374 16.616 58.1988 16.6125C59.2256 16.603 60.2524 16.5977 61.2792 16.5935C61.909 16.5908 62.5386 16.5856 63.1684 16.5789C63.4074 16.577 63.6464 16.5759 63.8854 16.5759C64.2201 16.5759 64.5549 16.5725 64.8896 16.5689C65.0796 16.5681 65.2696 16.5672 65.4654 16.5663C66.083 16.4898 66.5 16.3042 67.0313 15.9844C67.2754 15.4962 67.2572 15.15 67.2032 14.6094C66.8195 14.12 66.593 13.9477 66.0001 13.7501C65.537 13.7298 65.0775 13.7182 64.6143 13.7138C64.3364 13.709 64.0584 13.7041 63.7805 13.699C63.3425 13.6919 62.9047 13.6856 62.4667 13.6811C62.0438 13.6763 61.6211 13.6685 61.1983 13.6601C61.0672 13.6595 60.9362 13.659 60.8011 13.6584C60.3056 13.6469 59.9095 13.6337 59.4736 13.3842C59.2117 12.9073 59.2212 12.5013 59.209 11.9595C59.2029 11.744 59.1968 11.5285 59.1905 11.3066C59.1847 10.9687 59.1847 10.9687 59.1788 10.6241C59.1731 10.3946 59.1671 10.1651 59.161 9.93558C59.1468 9.3738 59.1356 8.81193 59.1251 8.25007C58.2176 8.25007 57.3101 8.25007 56.3751 8.25007Z"
      fill="black" />
    <path
      d="M56.0138 -0.0348268C56.1571 -0.0358065 56.3005 -0.0367862 56.4481 -0.0377956C56.7506 -0.0394105 57.053 -0.0405391 57.3555 -0.041205C57.8073 -0.0428572 58.259 -0.0481916 58.7108 -0.0536256C60.6774 -0.0659624 62.5272 0.120601 64.4532 0.51571C64.6156 0.548972 64.778 0.582233 64.9454 0.616502C65.3214 0.699655 65.6927 0.791485 66.0645 0.891687C66.2631 0.944923 66.2631 0.944923 66.4658 0.999235C74.1611 3.15569 80.612 8.39742 84.5625 15.297C86.2724 18.3754 87.9978 22.2451 88.0305 25.811C88.0327 26.0218 88.0349 26.2325 88.0371 26.4496C88.0386 26.6789 88.0398 26.9082 88.041 27.1375C88.042 27.3129 88.042 27.3129 88.0431 27.4918C88.0467 28.1126 88.0492 28.7334 88.0508 29.3541C88.0523 29.8618 88.0558 30.3695 88.0613 30.8772C88.1181 36.2397 88.1181 36.2397 87.3125 38.672C87.2397 38.918 87.2397 38.918 87.1654 39.169C87.039 39.5847 86.901 39.9927 86.7539 40.4015C86.7032 40.5441 86.6525 40.6868 86.6002 40.8338C86.0877 42.2339 85.4501 43.5532 84.7344 44.8595C84.6334 45.0449 84.5324 45.2303 84.4283 45.4214C81.811 50.0551 77.9473 53.8392 73.3907 56.547C73.2922 56.6056 73.1938 56.6643 73.0924 56.7247C70.6481 58.1573 67.9947 59.1467 65.2481 59.8233C65.1001 59.8605 64.952 59.8976 64.7995 59.9359C63.944 60.132 63.2618 60.1897 62.3907 59.9845C61.9717 59.7159 61.9717 59.7159 61.7032 59.297C61.6081 58.8196 61.5778 58.3939 61.7032 57.922C62.1993 57.3284 62.5917 57.1225 63.3387 56.9464C63.6167 56.8777 63.6167 56.8777 63.9003 56.8075C64.1952 56.737 64.1952 56.737 64.4961 56.6651C66.3004 56.2054 67.9494 55.6661 69.6094 54.8282C69.7897 54.7398 69.7897 54.7398 69.9736 54.6496C71.6429 53.8277 73.1507 52.92 74.5938 51.7345C74.6878 51.6577 74.7817 51.5809 74.8785 51.5018C80.3749 46.9951 84.0116 40.6383 84.8705 33.5335C84.9746 32.4808 84.9484 31.4147 84.9493 30.3575C84.9494 30.2266 84.9495 30.0957 84.9496 29.9608C84.9469 28.011 84.8795 26.1303 84.3907 24.2345C84.3603 24.1137 84.3298 23.9929 84.2985 23.8684C82.4513 16.7123 78.1065 10.634 71.7704 6.79418C65.9465 3.39634 58.36 1.87742 51.7344 3.60946C51.5295 3.66205 51.5295 3.66205 51.3205 3.71571C44.2207 5.58738 38.0387 9.91093 34.264 16.2616C32.0273 20.2058 30.5076 24.6911 30.4845 29.2627C30.4723 30.1259 30.2999 30.6986 29.9063 31.4532C29.3684 31.7221 28.7701 31.7449 28.1875 31.6251C27.8042 31.3914 27.8042 31.3914 27.5 30.9376C27.3992 30.3314 27.411 29.7352 27.4248 29.1222C27.4274 28.9454 27.4299 28.7686 27.4325 28.5865C27.613 21.1451 30.9871 14.2342 36.0938 8.93759C36.2249 8.79557 36.3561 8.65355 36.4912 8.50723C41.351 3.39295 48.9473 0.00381471 56.0138 -0.0348268Z"
      fill="black" />
    <path
      d="M71.5 65.9141C71.6134 65.9123 71.7269 65.9105 71.8438 65.9087C72.3562 66.0448 72.5595 66.2658 72.875 66.6875C72.9421 67.2058 72.9421 67.2058 72.918 67.7617C72.9118 67.9469 72.9056 68.1322 72.8992 68.323C72.8912 68.4639 72.8832 68.6048 72.875 68.75C73.0159 68.742 73.1568 68.734 73.302 68.7258C73.4872 68.7196 73.6724 68.7134 73.8633 68.707C74.1385 68.6951 74.1385 68.6951 74.4192 68.6829C74.9375 68.75 74.9375 68.75 75.343 69.0535C75.6405 69.4586 75.7187 69.6308 75.7109 70.125C75.7127 70.2384 75.7145 70.3519 75.7163 70.4688C75.5802 70.9812 75.3592 71.1845 74.9375 71.5C74.4192 71.5671 74.4192 71.5671 73.8633 71.543C73.6781 71.5368 73.4928 71.5306 73.302 71.5242C73.1611 71.5162 73.0202 71.5082 72.875 71.5C72.883 71.6409 72.891 71.7818 72.8992 71.927C72.9085 72.2048 72.9085 72.2048 72.918 72.4883C72.9259 72.6717 72.9339 72.8552 72.9421 73.0442C72.875 73.5625 72.875 73.5625 72.5715 73.968C72.1664 74.2655 71.9942 74.3437 71.5 74.3359C71.3298 74.3386 71.3298 74.3386 71.1562 74.3413C70.6438 74.2052 70.4405 73.9842 70.125 73.5625C70.0579 73.0442 70.0579 73.0442 70.082 72.4883C70.0882 72.3031 70.0944 72.1178 70.1008 71.927C70.1088 71.7861 70.1168 71.6452 70.125 71.5C69.9841 71.508 69.8432 71.516 69.698 71.5242C69.4202 71.5335 69.4202 71.5335 69.1367 71.543C68.9533 71.5509 68.7698 71.5589 68.5808 71.5671C68.0625 71.5 68.0625 71.5 67.657 71.1965C67.3595 70.7914 67.2813 70.6192 67.2891 70.125C67.2864 69.9548 67.2864 69.9548 67.2837 69.7812C67.4198 69.2688 67.6408 69.0655 68.0625 68.75C68.5808 68.6829 68.5808 68.6829 69.1367 68.707C69.3219 68.7132 69.5072 68.7194 69.698 68.7258C69.9094 68.7378 69.9094 68.7378 70.125 68.75C70.117 68.6091 70.109 68.4682 70.1008 68.323C70.0946 68.1378 70.0884 67.9526 70.082 67.7617C70.0741 67.5783 70.0661 67.3948 70.0579 67.2058C70.125 66.6875 70.125 66.6875 70.4285 66.282C70.8336 65.9845 71.0058 65.9063 71.5 65.9141Z"
      fill="black" />
    <path
      d="M20.625 15.0391C20.7384 15.0373 20.8519 15.0355 20.9688 15.0337C21.4812 15.1698 21.6845 15.3908 22 15.8125C22.0671 16.3308 22.0671 16.3308 22.043 16.8867C22.0368 17.0719 22.0306 17.2572 22.0242 17.448C22.0162 17.5889 22.0082 17.7298 22 17.875C22.1409 17.867 22.2818 17.859 22.427 17.8508C22.6122 17.8446 22.7974 17.8384 22.9883 17.832C23.2635 17.8201 23.2635 17.8201 23.5442 17.8079C24.0625 17.875 24.0625 17.875 24.468 18.1785C24.7655 18.5836 24.8437 18.7558 24.8359 19.25C24.8377 19.3634 24.8395 19.4769 24.8413 19.5938C24.7052 20.1062 24.4842 20.3095 24.0625 20.625C23.5442 20.6921 23.5442 20.6921 22.9883 20.668C22.8031 20.6618 22.6178 20.6556 22.427 20.6492C22.2861 20.6412 22.1452 20.6332 22 20.625C22.008 20.7659 22.016 20.9068 22.0242 21.052C22.0335 21.3298 22.0335 21.3298 22.043 21.6133C22.0509 21.7967 22.0589 21.9802 22.0671 22.1692C22 22.6875 22 22.6875 21.6965 23.093C21.2914 23.3905 21.1192 23.4687 20.625 23.4609C20.4548 23.4636 20.4548 23.4636 20.2812 23.4663C19.7688 23.3302 19.5655 23.1092 19.25 22.6875C19.1829 22.1692 19.1829 22.1692 19.207 21.6133C19.2132 21.4281 19.2194 21.2428 19.2258 21.052C19.2338 20.9111 19.2418 20.7702 19.25 20.625C19.1091 20.633 18.9682 20.641 18.823 20.6492C18.5452 20.6585 18.5452 20.6585 18.2617 20.668C18.0783 20.6759 17.8948 20.6839 17.7058 20.6921C17.1875 20.625 17.1875 20.625 16.782 20.3215C16.4845 19.9164 16.4063 19.7442 16.4141 19.25C16.4114 19.0798 16.4114 19.0798 16.4087 18.9062C16.5448 18.3938 16.7658 18.1905 17.1875 17.875C17.7058 17.8079 17.7058 17.8079 18.2617 17.832C18.4469 17.8382 18.6322 17.8444 18.823 17.8508C19.0344 17.8628 19.0344 17.8628 19.25 17.875C19.242 17.7341 19.234 17.5932 19.2258 17.448C19.2196 17.2628 19.2134 17.0776 19.207 16.8867C19.1991 16.7033 19.1911 16.5198 19.1829 16.3308C19.25 15.8125 19.25 15.8125 19.5535 15.407C19.9586 15.1095 20.1308 15.0313 20.625 15.0391Z"
      fill="black" />
  </symbol>
</svg>