<svg display="none" xmlns="http://www.w3.org/2000/svg"><symbol id="facebook" viewBox="0 0 20 20" fill="none"><path d="M10 0C4.477 0 0 4.477 0 10c0 4.991 3.657 9.128 8.438 9.879V12.89h-2.54V10h2.54V7.797c0-2.506 1.492-3.89 3.777-3.89 1.094 0 2.238.195 2.238.195v2.46h-1.26c-1.243 0-1.63.771-1.63 1.562V10h2.773l-.443 2.89h-2.33v6.989C16.343 19.129 20 14.99 20 10c0-5.523-4.477-10-10-10" fill="currentColor"/></symbol><symbol id="instagram" viewBox="0 0 20 20" fill="none"><path d="M10 0c2.717 0 3.056.01 4.122.06s1.79.217 2.428.465c.66.254 1.216.598 1.772 1.153.509.5.902 1.105 1.153 1.772.247.637.415 1.363.465 2.428.047 1.066.06 1.405.06 4.122s-.01 3.056-.06 4.122-.218 1.79-.465 2.428a4.9 4.9 0 0 1-1.153 1.772c-.5.508-1.105.902-1.772 1.153-.637.247-1.363.415-2.428.465-1.066.047-1.405.06-4.122.06s-3.056-.01-4.122-.06-1.79-.218-2.428-.465a4.9 4.9 0 0 1-1.772-1.153A4.9 4.9 0 0 1 .525 16.55C.277 15.913.11 15.187.06 14.122.013 13.056 0 12.717 0 10s.01-3.056.06-4.122.217-1.79.465-2.428a4.9 4.9 0 0 1 1.153-1.772A4.9 4.9 0 0 1 3.45.525C4.088.277 4.812.11 5.878.06 6.944.013 7.283 0 10 0m0 5a5 5 0 1 0 0 10 5 5 0 0 0 0-10m6.5-.25a1.25 1.25 0 1 0-2.5 0 1.25 1.25 0 0 0 2.5 0M10 7a3 3 0 1 1 0 6 3 3 0 0 1 0-6" fill="currentColor"/></symbol><symbol id="youtube" viewBox="0 0 20 16" fill="none"><path d="M19.543 2.498C20 4.28 20 8 20 8s0 3.72-.457 5.502c-.254.985-.997 1.76-1.938 2.022C15.896 16 10 16 10 16s-5.893 0-7.605-.476c-.945-.266-1.687-1.04-1.938-2.022C0 11.72 0 8 0 8s0-3.72.457-5.502c.254-.985.997-1.76 1.938-2.022C4.107 0 10 0 10 0s5.896 0 7.605.476c.945.266 1.687 1.04 1.938 2.022M8 11.5 14 8 8 4.5z" fill="currentColor"/></symbol><symbol id="twitter" viewBox="0 0 22 18" fill="none"><path d="M21.162 2.656a8.4 8.4 0 0 1-2.402.658A4.2 4.2 0 0 0 20.6 1c-.82.488-1.719.83-2.656 1.015a4.182 4.182 0 0 0-7.126 3.814 11.87 11.87 0 0 1-8.62-4.37 4.17 4.17 0 0 0-.566 2.103c0 1.45.738 2.73 1.86 3.48a4.2 4.2 0 0 1-1.894-.522v.052a4.185 4.185 0 0 0 3.355 4.1 4.2 4.2 0 0 1-1.89.073A4.185 4.185 0 0 0 6.97 13.65a8.4 8.4 0 0 1-6.191 1.732 11.83 11.83 0 0 0 6.41 1.88c7.693 0 11.9-6.373 11.9-11.9q0-.271-.013-.54a8.5 8.5 0 0 0 2.087-2.165z" fill="currentColor"/></symbol><symbol id="coffee-beans" viewBox="0 0 88 88" fill="none"><path d="M63.423-.032q.557 0 1.112-.007c5.573-.022 11.123 1.723 15.387 5.367l.268.227c4.464 3.824 7.233 9.39 7.776 15.246.071 1.075.076 2.152.077 3.23v.379c-.002 2.098-.14 4.122-.559 6.184l-.075.383c-1.47 7.302-5.238 14.12-10.065 19.726l-.327.388q-.431.501-.876.987l-.245.27c-1.986 2.19-1.986 2.19-3.034 3.062-.377.317-.733.651-1.093.987-2.802 2.534-2.802 2.534-4.222 3.244l.038.5c.494 7.047-.182 14.399-4.967 19.986a53 53 0 0 1-2.118 2.201l-.313.318c-4.288 4.081-10.47 5.438-16.208 5.408l-.373-.001c-2.081-.008-4.094-.162-6.137-.569l-.397-.075c-8.119-1.56-16.596-5.794-22.34-11.827a14 14 0 0 0-.971-.88c-.826-.712-1.53-1.522-2.245-2.343l-.278-.312C4.623 64.572-.032 54.637-.032 44.549q0-.591-.007-1.181c-.021-5.655 1.572-10.98 5.195-15.352l.329-.402c3.823-4.538 9.67-6.732 15.433-7.305.79-.055 1.58-.06 2.371-.06h.543a31 31 0 0 1 4.527.376l.13-.285c1.206-2.264 3.239-4.275 4.973-6.139l.315-.34a26 26 0 0 1 2.008-1.908c.366-.315.718-.645 1.072-.974C43.076 5.37 51.155 1.356 59.468.172l.33-.05c1.204-.16 2.413-.154 3.624-.154m-5.33 5.876-.39.09c-3.007.695-5.854 1.735-8.579 3.182q-.442.233-.888.46a38.3 38.3 0 0 0-9.908 7.44q-.649.653-1.308 1.296c-1.792 1.644-1.792 1.644-2.989 3.688l.353.13c5.765 2.144 11.014 4.807 15.725 8.808.525.427 1.072.813 1.625 1.203l.14-.43c3.029-9.347 8.021-17.181 16.993-21.808a58 58 0 0 1 4.867-2.169c-2.64-2.029-6.554-2.446-9.764-2.449h-.362c-1.884.003-3.678.118-5.514.559M76.12 12.46l-.332.118c-1.725.618-3.38 1.295-4.975 2.202l-.334.188c-1.419.8-2.73 1.662-3.962 2.734l-.42.363c-5.088 4.49-8.005 9.892-9.55 16.48l-.114.483-.1.452-.089.397c-.065.633.013 1.096.409 1.598l.367.369c2.09 2.24 3.688 4.88 5.2 7.53l.212.367c1.495 2.605 2.524 5.419 3.569 8.227 1.924-1.096 3.48-2.758 5.038-4.308l.485-.48c.984-.988 1.88-2.01 2.727-3.118l.301-.389a44.5 44.5 0 0 0 3.996-6.143l.192-.352c1.544-2.86 2.673-5.939 3.417-9.1l.085-.346c1.331-5.589.487-11.765-2.491-16.67-.473-.722-.473-.722-1.031-1.376-.877 0-1.778.481-2.6.774M11.344 29.562c1.078 5.414 4.017 10.108 7.734 14.094l.384.418c4.205 4.41 9.815 6.668 15.611 8.09 6.408 1.576 11.873 4.452 16.661 9.023l.445.417c3.347 3.227 5.79 7.346 7.49 11.638.153.366.153.366.487.836 1.07-1.893 1.743-4.039 2.063-6.187l.057-.372c1.153-9.08-2.91-18.056-8.313-25.098l-.51-.655-.418-.538c-1.048-1.287-2.205-2.465-3.374-3.641l-.48-.485a31.5 31.5 0 0 0-3.118-2.727l-.38-.296c-5.403-4.184-11.705-7.34-18.527-8.298l-.4-.057c-5.318-.62-11.245.232-15.412 3.839m-4.125 4.985c-2.093 4.855-2.624 10.467-1.375 15.64l.115.486c1.23 5.053 3.377 9.895 6.416 14.124l.385.538q.568.771 1.162 1.524l.384.492c2.223 2.732 4.814 5.378 7.694 7.415l.315.228c5.181 3.749 11.184 6.598 17.56 7.506l.347.052c1.24.163 2.485.151 3.735.152l.667.007c2.983.004 5.774-.56 8.475-1.822l.406-.19c.925-.449 1.725-.993 2.526-1.636-.212-1.07-.5-2.083-.88-3.105l-.16-.427c-1.467-3.852-3.701-7.226-6.522-10.219l-.338-.37c-4.175-4.416-9.844-6.73-15.63-8.126-4.458-1.076-8.664-2.69-12.392-5.425l-.273-.2a39 39 0 0 1-3.68-3.066l-.255-.238c-3.674-3.447-6.221-7.716-8.128-12.344-.204-.502-.204-.502-.554-.996" fill="#000"/></symbol><symbol id="badge" viewBox="0 0 88 88" fill="none"><path d="M46.922.688c1.078.705 2.099 1.484 3.123 2.265l.365.277q.347.264.692.532c2.334 1.785 4.708 1.787 7.54 1.738 4.455-.076 4.455-.076 6.3 1.468 1.282 1.274 1.694 3.142 2.219 4.819l.157.5q.15.483.294.966c.765 2.503 1.843 4.018 4.006 5.47l.923.635.85.58c1.656 1.13 3.22 2.24 3.689 4.305.245 1.549-.202 3.003-.699 4.458l-.126.37q-.26.758-.529 1.514c-.766 2.156-1.235 4.235-.434 6.476l.113.332q.192.555.392 1.107c1.777 5.012 1.777 5.012 1.031 7.047-.92 1.85-2.45 2.88-4.12 4a54 54 0 0 0-2.199 1.576c-.384.268-.384.268-.757.434-.404.228-.46.45-.658.865a48 48 0 0 1-.414.617c-.512.812-.777 1.657-1.047 2.573l-.308 1.004-.15.494a71 71 0 0 1-.638 1.95q-.186.547-.365 1.096l-.112.328c-.076.455.016.69.187 1.117l.179.455.2.495.207.522q.34.852.682 1.702l.468 1.18.97 2.437a776 776 0 0 1 2.013 5.118l.594 1.518.365.932.164.418.3.77q.145.375.294.747c.324.825.453 1.334.192 2.199-.376.444-.682.77-1.203 1.031-2.337-.023-4.67-.39-6.984-.686l-1.435-.18-.442-.058-.41-.05-.36-.046c-.636-.02-.947.087-1.414.525l-.417.474-.228.257a68 68 0 0 0-1.804 2.165c-.778.947-1.587 1.867-2.394 2.79q-.279.321-.553.648l-.277.33-.249.298c-.286.306-.49.4-.906.449l-.4.013-.395.02c-.591-.106-.837-.344-1.27-.761-.256-.45-.433-.922-.614-1.406l-.167-.43q-.273-.703-.54-1.409l-.382-.986-.804-2.083c-.618-1.609-1.25-3.213-1.879-4.819l-1.13-2.894q-.403-1.031-.817-2.058l-.148-.365-.39-.956c-.175-.47-.175-.47-.175-.813h-1.376l-.09.278a58 58 0 0 1-1.075 2.972l-.19.493q-.864 2.223-1.732 4.445a791 791 0 0 0-1.38 3.562q-.44 1.14-.885 2.28l-.42 1.091q-.293.762-.59 1.522-.086.224-.172.455c-.324.816-.595 1.333-1.372 1.808-.533.135-1.008.106-1.547 0-.916-.554-1.51-1.423-2.173-2.252-.38-.467-.773-.913-1.178-1.357a46 46 0 0 1-1.902-2.246l-.419-.504-.248-.411c-.343-.499-.615-.809-1.126-1.136-1.025-.104-1.987.06-2.997.225q-.401.058-.802.112-.798.111-1.595.233a82 82 0 0 1-2.368.318l-.35.044c-2.078.246-2.078.246-2.953-.191-.494-.435-.68-.611-.795-1.257.245-1.554.87-2.99 1.44-4.447l.337-.868q.466-1.203.937-2.404l.655-1.674q1.128-2.888 2.262-5.773l.192-.49.184-.466.175-.448q.184-.462.381-.917l.196-.458.18-.407c.163-.577.006-.953-.222-1.49-.224-.53-.382-1.068-.544-1.62l-.195-.643q-.198-.656-.393-1.313c-.93-3.054-2.203-4.664-4.887-6.402-4.313-2.874-4.313-2.874-4.786-5.203-.162-1.686.328-3.22.887-4.787l.412-1.189.198-.571c1.084-3.168.585-5.439-.478-8.508l-.163-.477a62 62 0 0 0-.322-.91c-.533-1.532-.828-3.183-.227-4.738.905-1.783 2.445-2.862 4.08-3.93 3.448-2.254 4.592-4.356 5.788-8.28.597-1.936 1.29-3.791 3.023-4.977 1.17-.574 2.305-.713 3.599-.693l.81.007 1.26.015c3.439.044 5.615-.494 8.356-2.653 2.62-2.062 5.481-4.12 8.834-2.176m-6.617 5.156c-2.63 2.129-5.136 3.324-8.579 3.27l-.816-.006-1.267-.015-1.236-.011-.378-.007c-.806-.004-1.492.095-2.248.378-.737.965-1.015 2.138-1.364 3.287q-.18.579-.364 1.158l-.175.555c-1.243 3.901-3.313 5.927-6.65 8.15q-.765.513-1.512 1.051l-.43.308c-.373.278-.373.278-.677.788-.072.992.06 1.71.402 2.653l.254.725.401 1.114c1.4 3.884 1.223 6.992-.133 10.89q-.201.582-.397 1.162-.12.358-.247.714a5.2 5.2 0 0 0-.28 2.164c.515.922 1.476 1.45 2.332 2.03l.933.645 1.18.808c3.025 2.055 4.234 4.728 5.213 8.118q.159.55.322 1.097.146.492.288.984c.273.734.579 1.37 1.217 1.85.531.154 1.013.144 1.566.136l.351-.003q.555-.005 1.111-.014c4.42-.058 7.545.448 11.097 3.255q.447.35.898.696l.836.651c1.063.799 1.063.799 2.356.977.826-.195 1.444-.776 2.097-1.293q.73-.565 1.461-1.127l.385-.297c2.16-1.654 4.252-2.691 6.995-2.808l.41-.02a47 47 0 0 1 2.581-.036l.607.005q.594.008 1.187.023l.553.008.49.011c.554-.068.866-.245 1.316-.571.87-1.183 1.146-2.67 1.533-4.067 1.21-4.336 3.446-6.626 7.094-9.016 1.33-.872 1.33-.872 2.373-2.042.072-.992-.06-1.71-.402-2.653l-.254-.725-.401-1.114c-1.382-3.832-1.249-6.965.133-10.794q.201-.56.398-1.12.12-.345.246-.686c.286-.82.353-1.474.28-2.33-.614-1.094-2.04-1.803-3.062-2.47-3.708-2.481-5.326-4.864-6.585-9.15-.526-2.182-.526-2.182-1.869-3.849-.735-.209-1.467-.188-2.224-.176l-.81.006-1.26.015c-4.437.057-7.302-1.21-10.753-3.974-1.293-1.078-1.293-1.078-2.85-1.615-1.408.207-2.597 1.433-3.673 2.307M25.094 63.25c-.715 1.507-1.317 3.046-1.909 4.605q-.422 1.11-.848 2.22l-.172.45a299 299 0 0 1-1.701 4.316l-.136.338L19.594 77c.593.297 1.267.08 1.908-.005l.965-.122q.76-.097 1.52-.197l1.468-.186.454-.061c2.112-.262 2.112-.262 2.965.269l.248.28.296.329q.738.885 1.463 1.784c.389.473.792.927 1.206 1.379.64.702 1.221 1.429 1.772 2.202.432-.384.634-.72.839-1.257l.176-.456.187-.496.2-.518.64-1.677q.44-1.152.882-2.303l.22-.578q.662-1.728 1.356-3.442l.162-.402c.401-.996.401-.996.599-1.472l.398-.98.223-.544c.15-.54.148-.819-.038-1.344-.22-.278-.22-.278-.514-.493l-.322-.255-.345-.262-.354-.273c-2.168-1.657-3.898-2.57-6.662-2.586l-.56-.01a291 291 0 0 0-1.749-.02l-1.193-.018q-1.455-.022-2.91-.036m33.863.045-1.076.015q-.78.008-1.561.024l-.48.003c-3.13.07-5.738 2.06-7.887 4.21a1129 1129 0 0 0 4.57 11.796q.306.786.617 1.571l.186.48.173.436.15.381c.129.322.129.322.492.46l.26-.322c.97-1.196 1.964-2.368 2.98-3.525q.502-.57.98-1.161l.388-.47.326-.406c.979-.75 2.41-.446 3.557-.303l.503.058 1.576.19 1.074.126q1.311.155 2.621.314a516 516 0 0 0-3.427-8.895l-.192-.489-.553-1.398-.165-.418a63 63 0 0 0-1.163-2.722c-1.316 0-2.633.023-3.95.045" fill="#000"/><path d="m50.188 12.547.372.106a21.7 21.7 0 0 1 8.05 4.363l.28.237c4.193 3.581 6.716 8.446 7.626 13.856l.096.55c.675 5.858-.86 12.04-4.533 16.7a55 55 0 0 1-1.407 1.657l-.39.443c-3.874 4.111-9.632 6.59-15.25 6.775l-.475.021c-6.206.144-12.049-2.224-16.537-6.478-3.548-3.474-5.687-7.925-6.536-12.793l-.096-.537c-.65-5.704.703-11.63 4.083-16.314.377-.468.768-.92 1.17-1.367l.433-.508c2.988-3.45 7.048-5.713 11.426-6.883l.592-.167c3.484-.823 7.671-.66 11.096.339m-20.97 9.797c-3.072 3.696-4.69 8.789-4.296 13.578.425 4.09 1.844 7.932 4.64 11l.318.39c3.05 3.691 7.683 5.611 12.327 6.222 5.153.489 10.093-1.189 14.074-4.43 3.987-3.351 6.237-8.044 6.797-13.182.418-4.978-1.315-9.926-4.469-13.75-3.309-3.777-7.949-6.392-13.015-6.735-6.445-.3-12.076 2.053-16.375 6.907" fill="#000"/><path d="m44.097 21.377.376-.007c.764.226 1.181.865 1.575 1.525q.156.308.307.618l.167.335.344.697q.26.53.526 1.058l.338.682.157.314c.336.692.561 1.363.754 2.104l.482.051c1.605.176 3.205.392 4.803.626l.588.082.558.084.498.072c.633.16 1.15.404 1.546.933.237.775.23 1.37-.14 2.094-.741.909-1.57 1.708-2.46 2.471l-.335.296q-.443.389-.897.767l-.53.473-.5.433c-.527.842-.344 1.496-.176 2.446l.101.597c.15.864.312 1.726.477 2.587.378 2.082.378 2.082.11 3.175-.538.63-.839.84-1.667.924-.836-.023-1.445-.342-2.166-.74l-.393-.209q-.618-.328-1.231-.662-.619-.333-1.239-.662a73 73 0 0 1-.767-.413c-.607-.325-.944-.472-1.647-.472-.362.133-.362.133-.728.328l-.424.214-.448.232-.463.233a54 54 0 0 0-2.126 1.132l-.343.192q-.455.258-.906.523c-.729.303-1.168.31-1.952.24-.591-.344-.591-.344-1.032-.86-.199-.992-.153-1.808.037-2.794l.07-.393q.111-.615.226-1.228.113-.615.224-1.233l.141-.763c.18-.916.18-.916.162-1.838-.259-.38-.259-.38-.629-.719l-.404-.398-.428-.409-.412-.405a46 46 0 0 0-2.312-2.111c-.663-.596-1.119-1.134-1.186-2.028.047-.7.086-.978.558-1.493 1.325-.55 2.712-.725 4.123-.922q.603-.084 1.206-.173l1.133-.162a11.5 11.5 0 0 1 1.616-.118l.137-.438c.22-.63.484-1.228.768-1.83l.165-.347.345-.723q.175-.367.347-.737.251-.537.508-1.071l.151-.33c.462-.945 1.173-1.87 2.317-1.85m-.269 6.123-.144.318q-.329.716-.661 1.433l-.227.5c-.808 1.729-.808 1.729-1.546 2.218-.72.19-1.443.285-2.18.376q-.588.077-1.174.157l-.523.066c-.449.054-.449.054-.764.432q.633.645 1.268 1.289l.364.373.349.352.322.327c.258.274.258.274.62.237.704 1.321.317 2.995.085 4.404l-.074.474q-.09.569-.184 1.138l1.408-.656.4-.185a20 20 0 0 0 1.974-1.05c1.043-.364 1.806.069 2.75.516q1.382.672 2.75 1.375l-.161-1.139-.091-.64q-.086-.585-.186-1.169c-.151-.952-.243-1.841.158-2.735.545-.61 1.14-1.138 1.755-1.675a10.4 10.4 0 0 0 1.275-1.408 23 23 0 0 0-2.309-.451l-.412-.06a39 39 0 0 0-.823-.107c-.639-.093-1.03-.194-1.564-.573-.554-.745-.923-1.543-1.306-2.386l-.236-.51a167 167 0 0 1-.57-1.241z" fill="#000"/></symbol><symbol id="cup" viewBox="0 0 88 88" fill="none"><path d="m2.398 30.048.427-.004 1.405-.007.485-.002q1.268-.006 2.537-.008 1.31-.004 2.621-.014 1.008-.006 2.015-.007.483 0 .967-.006.675-.005 1.352-.003l.403-.006c.639.006.997.066 1.54.414.579.596.59 1.058.583 1.862-.098.622-.431.884-.92 1.249-.59.196-1.041.192-1.663.191h-.351l-1.147-.003h-.795l-2.093-.005-2.136-.003q-2.096-.003-4.19-.009.02 2.435.049 4.87l.023 2.262c.037 4.278.037 4.278.254 8.55l.04.54c.61 7.419 4.065 14.143 9.087 19.528l.377.412c1.162 1.22 2.468 2.259 3.84 3.232q.43.315.837.659c1.58 1.232 2.945 1.222 4.88 1.204q.483.002.966.007 1.304.008 2.608 0c.912-.004 1.825-.001 2.738.001q2.3.004 4.598-.007a625 625 0 0 1 5.304.002q2.283.01 4.566.004 1.362-.004 2.722.002 1.28.006 2.56-.007.468-.003.935.002c2.041.018 3.233-.198 4.834-1.557q.307-.225.618-.444a46 46 0 0 0 3.68-3.166l.393-.36c6.388-6.04 9.012-14.919 9.256-23.452.046-1.864.062-3.729.078-5.593q.011-1.136.025-2.272.023-2.208.044-4.417l-.555.002q-6.688.017-13.375.025-3.234.004-6.468.012-2.82.008-5.637.01-1.492 0-2.985.006-1.405.006-2.81.004-.515 0-1.03.003-.705.003-1.409 0l-.412.005c-.823-.007-1.39-.124-2.1-.582-.46-.69-.464-1.25-.344-2.063.308-.493.513-.772 1.031-1.03a41 41 0 0 1 1.497-.026l.476-.002 1.587-.003 1.134-.004a1986 1986 0 0 1 5.014-.009q2.84-.005 5.68-.007h1.388q2.787-.004 5.576-.012 2.862-.009 5.724-.01 1.606 0 3.214-.006a525 525 0 0 1 3.023-.003q.555 0 1.11-.003.758-.004 1.515 0l.445-.006c.694.008 1.034.037 1.634.418.544.571.535.904.531 1.677l-.001.584-.005.612-.002.617-.008 1.51.547-.004q2.558-.021 5.114-.031 1.314-.005 2.628-.017 1.269-.01 2.538-.013.484-.002.967-.008.678-.006 1.357-.005l.402-.007c.893.006 1.402.205 2.087.773.274.548.199 1.143.2 1.746l.002.44q.004.723.005 1.447l.003 1.008.003 2.122q.002 1.35.01 2.7.005 1.044.005 2.088 0 .498.004.994c.03 4.736-1.202 8.991-4.584 12.438l-.46.454-.386.385c-3.664 3.456-8.332 4.329-13.171 4.277l-.861-.004q-1.041-.006-2.082-.017l-.153.401c-1.29 3.097-4.719 6.103-7.238 8.193h.614q2.865.004 5.728.022 1.472.01 2.945.011 1.421.001 2.842.014l1.084.002q.76-.001 1.519.01l.453-.005c.746.014 1.054.05 1.666.516.738 1.011.424 2.57.26 3.765-.631 2.953-2.427 5.452-4.871 7.185-2.226 1.366-4.292 1.766-6.857 1.759l-.71.002q-.97.002-1.941 0-1.049 0-2.098.003-2.052.002-4.105.002h-3.818l-.966.002h-9.057q-4.138 0-8.278.004-4.252.006-8.507.004-2.386 0-4.773.003-2.032.003-4.063 0a477 477 0 0 0-2.072.001q-.95.002-1.9-.001l-1.005.003c-3.258-.02-5.982-1.22-8.293-3.506Q.054 81.377-.075 77.13l-.018-.358c-.005-.63.063-.935.453-1.436.619-.493.933-.507 1.717-.51q.178-.004.361-.006.587-.006 1.175-.003l.817-.008q1.073-.01 2.145-.01c.73 0 1.461-.007 2.192-.013q2.148-.016 4.296-.02l-.223-.207-1.01-.942-.35-.326C5.036 67.28.338 58.71-.018 49.744q-.011-.735-.012-1.47l-.004-.56-.007-1.82-.002-.631q-.006-1.648-.008-3.296-.004-1.703-.014-3.405-.007-1.31-.007-2.62 0-.628-.006-1.256a191 191 0 0 1-.003-1.752l-.006-.524c.005-.754.013-1.18.414-1.834.653-.591 1.229-.525 2.07-.528m69.79 8.968v3.265l.696.008q1.28.015 2.56.037l1.109.015q.796.008 1.593.024l.5.003c.843.019 1.458.038 2.135.6.2.4.198.64.205 1.084l.009.465q.011 1.065.018 2.131.005.558.014 1.116c.054 3.052-.14 5.467-2.136 7.923l-.315.428c-1.685 1.952-4.227 2.854-6.726 3.068q-.948.068-1.897.114l-.601 1.44-.174.413-.165.396-.153.365c-.13.307-.13.307-.11.651 4.468.12 8.144-.477 11.645-3.502 2.887-2.746 4.08-6.22 4.182-10.133q.007-.953.002-1.905v-.619l-.006-2.263-.01-5.124zm0 6.875-.044 1.869c-.075 2.333-.415 4.6-.816 6.896l-.172 1.031c1.72-.006 3.14-.51 4.458-1.632l.355-.43.44-.462c1.302-1.598 1.307-3.597 1.29-5.554l-.011-1.718zM3.78 78.375c.326 1.956 1.378 3.415 2.922 4.64 2.192 1.401 4.369 1.6 6.93 1.591l.665.002h3.762q1.91.003 3.823.001h4.459q4.22 0 8.439-.002 3.615-.002 7.23 0 4.206.003 8.411.002h8.233q.963-.003 1.928-.001 1.049.001 2.096-.002l.608.002c2.777-.013 5.15-.44 7.257-2.377.901-.968 1.987-2.495 1.987-3.856zM45.547 3.781c.959.543.959.543 1.203 1.032.163 1.1-.069 1.827-.655 2.759-.546.892-.463 1.904-.376 2.913.236.94.727 1.617 1.343 2.352 1.968 2.358 2.515 4.96 2.266 7.96-.398 2.257-1.63 4.26-3.266 5.844-.555.278-1.117.27-1.718.172-.571-.295-.95-.667-1.203-1.268 0-1.095.313-1.652 1.01-2.47 1.136-1.37 1.469-2.676 1.487-4.438-.236-1.527-.997-2.696-1.896-3.92-1.552-2.21-2.09-4.118-1.804-6.81a7.7 7.7 0 0 1 1.89-3.782c.593-.363 1.023-.427 1.719-.344M36.266 0c.54.26.767.45.985 1.011.227 1.084-.171 1.776-.737 2.688-.492.844-.52 1.704-.42 2.66.364 1.123 1 2.026 1.708 2.955 1.628 2.218 2.376 4.655 1.994 7.415-.417 2.223-1.346 3.933-2.843 5.615l-.257.296c-.464.394-1.048.41-1.633.391-.72-.288-1.064-.669-1.376-1.375-.113-.553-.081-.885.196-1.38.271-.405.553-.8.836-1.198.977-1.5 1.583-2.816 1.375-4.64-.298-1.301-.912-2.269-1.714-3.32-1.486-1.971-2.24-3.997-2.068-6.477.254-1.648.851-3.144 1.945-4.415.678-.332 1.269-.353 2.009-.226m-9.797 3.781c.959.543.959.543 1.203 1.031.119 1.052.001 1.62-.516 2.546-.572 1.07-.728 1.928-.515 3.126.403 1.258 1.24 2.23 2.036 3.262 1.168 1.64 1.634 3.397 1.627 5.386l.008.461c.002 2.605-1.247 4.819-2.984 6.704-.565.496-.956.605-1.724.578-.532-.098-.828-.37-1.198-.75-.282-.566-.282-1.11-.172-1.719.289-.556.663-1.042 1.032-1.547q.29-.453.569-.913l.256-.417c.633-1.195.54-2.828.284-4.127-.357-1.02-1.005-1.817-1.673-2.65-1.64-2.06-2.117-4.264-1.843-6.846.269-1.377.86-2.8 1.891-3.781.6-.353 1.02-.428 1.719-.344" fill="#000"/><path d="M62.642 44.923c.669.166.898.405 1.295.968.12.618.106 1.22.086 1.847l-.01.536a21 21 0 0 1-.591 4.492l-.104.425c-1.245 4.98-3.59 9.257-7.115 12.98l-.358.382c-.454.422-.743.466-1.36.478-.731-.21-1.097-.37-1.547-.988-.224-.727-.244-1.032 0-1.762.337-.42.703-.803 1.076-1.192 3.79-4.098 6.017-9.773 6.231-15.321.047-.915.192-1.678.685-2.458.577-.375 1.036-.37 1.712-.387m-12.97 22.796c.619.307.971.698 1.214 1.353-.014.706-.17 1.132-.527 1.74-.585.426-.92.516-1.643.516-.734-.213-1.017-.4-1.45-1.031-.166-.802-.114-1.366.322-2.063.628-.59 1.246-.652 2.084-.515M25.266 30.078c.688.42.974.675 1.214 1.45-.013.714-.116 1.06-.527 1.644-.586.413-.925.516-1.643.516-.734-.214-1.017-.4-1.45-1.032a3.3 3.3 0 0 1 0-1.547c.724-.915 1.247-1.147 2.406-1.03" fill="#000"/></symbol><symbol id="coin" viewBox="0 0 88 88" fill="none"><path d="M29.047 33c2.266.479 4.156 1.827 5.457 3.738 2.063 3.52 1.263 7.888.73 11.71l-.149 1.115q-.18 1.344-.366 2.687l.29-.002q3.508-.023 7.016-.033 1.696-.005 3.393-.017 1.638-.01 3.276-.013.624-.002 1.248-.008.876-.006 1.752-.005l.517-.007c1.556.009 2.92.434 4.073 1.511 1.253 1.394 1.597 2.891 1.541 4.74-.106 1.432-.803 2.561-1.858 3.502q-.307.242-.623.473l.182.39.237.512.235.508c.573 1.344.563 2.82.12 4.208-.403.997-1.047 1.713-1.806 2.46l-.343.344.182.351.237.465.235.46c.604 1.305.552 2.815.12 4.17-.403.997-1.047 1.713-1.806 2.46l-.343.344.182.351.237.465.235.46c.6 1.299.553 2.808.13 4.16-.667 1.614-1.748 2.618-3.323 3.315-.995.334-1.983.316-3.024.316l-.729.01q-.984.014-1.968.015-.62.002-1.24.007-2.183.015-4.364.016-1.785.002-3.569.025c-12.8.16-12.8.16-18.49-2.265l-.056.364-.083.473-.078.472c-.126.41-.126.41-.642.753-.484.035-.951.05-1.436.05l-.444.004q-.727.004-1.454.004-.506 0-1.01.003l-2.119.003q-1.357.001-2.716.01-1.042.006-2.086.005-.501 0-1.001.004-.7.005-1.4 0l-.419.007c-.566-.007-.95-.026-1.419-.359-.41-.558-.404-1.03-.395-1.697l-.004-.392q-.002-.65.002-1.3 0-.465-.004-.931-.004-1.266 0-2.532.002-1.323 0-2.647-.002-2.222.003-4.445.005-2.571 0-5.142-.005-2.207-.003-4.412.002-1.32 0-2.637-.004-1.239.003-2.478l-.001-.91q-.003-.621.004-1.242l-.005-.365c.01-.567.06-.87.4-1.332.576-.408 1.155-.365 1.835-.358l.444-.004q.726-.002 1.452.002l1.01-.002q1.058-.002 2.115.004 1.356.004 2.711-.003 1.043-.003 2.085 0l1-.002q.698-.001 1.397.005l.418-.004c.616.01.968.041 1.468.417.307.434.33.654.3 1.18l-.019.416-.024.314c2.15-1.402 3.711-3.106 4.403-5.595l.126-.444q.207-.725.41-1.452l.29-1.02q.382-1.346.76-2.692.605-2.139 1.212-4.276.21-.738.416-1.476a441 441 0 0 1 1.441-4.99l.149-.515.142-.476.124-.42c.546-1.3 1.875-.988 3.074-.878m-.516 3.094a264 264 0 0 0-2.023 6.83l-.381 1.343c-.527 1.858-.527 1.858-1.051 3.717q-.324 1.152-.653 2.304l-.244.865c-.921 3.306-2.351 6.481-5.46 8.28-.74.378-1.412.694-2.219.895v22.516c6.997 2.14 6.997 2.14 13.91 2.667.623-.014 1.246-.013 1.87-.014q1.552-.007 3.106-.037c1.457-.028 2.913-.038 4.37-.045a641 641 0 0 0 6.197-.068l.6-.006c1.823-.034 1.823-.034 3.397-.856.699-.815.814-1.366.8-2.408-.07-.647-.302-.99-.734-1.468-1.071-.842-1.987-.882-3.31-.895l-.83-.015-1.303-.018-1.262-.02-.394-.003c-.897-.02-.897-.02-1.319-.322-.22-.341-.245-.556-.24-.96l-.005-.355c.09-.436.24-.572.584-.849.34-.065.34-.065.729-.066l.443-.005.479.001.495-.005q.785-.01 1.571-.011a267 267 0 0 0 2.059-.016l.472.002c1.078-.013 2.3-.086 3.142-.837.696-.817.812-1.365.799-2.408-.07-.647-.303-.99-.735-1.468-1.071-.842-1.987-.882-3.31-.895l-.83-.015-1.303-.018-1.262-.02-.394-.003c-.897-.02-.897-.02-1.319-.322-.22-.341-.245-.556-.24-.96l-.005-.355c.09-.436.24-.572.584-.849.34-.065.34-.065.729-.066l.443-.005.479.001.495-.005q.785-.01 1.571-.011a267 267 0 0 0 2.059-.016l.472.002c1.078-.013 2.3-.086 3.142-.837.696-.817.812-1.365.799-2.408-.07-.647-.303-.99-.735-1.468-1.071-.842-1.987-.882-3.31-.895l-.83-.015-1.303-.018q-.63-.008-1.262-.02l-.394-.003c-.897-.02-.897-.02-1.319-.322-.22-.341-.245-.556-.24-.96l-.005-.355c.09-.436.24-.572.584-.849.34-.065.34-.065.729-.066l.443-.005.479.001.495-.005q.785-.01 1.571-.011a267 267 0 0 0 2.059-.016l.472.002c1.078-.013 2.3-.086 3.142-.837.696-.817.812-1.365.799-2.408-.07-.647-.303-.99-.735-1.468-.897-.705-1.628-.88-2.748-.883l-.51-.002-.553-.001-3.84-.016q-2.835-.016-5.668-.026-1.732-.005-3.466-.017-.662-.004-1.323-.005-.922-.001-1.845-.01c-.275.002-.275.002-.556.002l-.506-.005-.441-.002c-.458-.08-.608-.217-.888-.581-.193-.628-.169-1.147-.081-1.792l.073-.553.082-.595.167-1.266.267-1.98c.918-5.273.918-5.273-.626-10.207-.862-1.044-1.818-1.626-3.148-1.826M2.75 57.75v27.5h11v-27.5z" fill="#000"/><path d="m55.86 5.409.454-.002q.475 0 .95.003.726.004 1.453-.004l.924.003.438-.004c.634.01 1.003.028 1.545.375.332.539.33.896.318 1.527l-.007.652-.017.678-.01.686q-.012.84-.033 1.677l.467-.01q.867-.018 1.734-.028.373-.005.747-.014c1.617-.038 2.857-.047 4.14 1.077l.281.34.289.337c.77 1.117.708 2.315.592 3.626-.289 1.145-1.11 1.923-2.062 2.578-.664.318-1.194.388-1.927.39l-.641.006h-.34q-.533.002-1.064.008-1.51.013-3.02.018-.926.005-1.852.015-.52.004-1.04.003c-1.173.013-2.29.037-3.35.592-.79.809-.921 1.387-.909 2.484.072.642.308.994.736 1.469.867.645 1.703.707 2.759.711 3.93.053 6.781.574 9.74 3.35 2.401 2.496 3.068 5.39 3.011 8.73-.092 2.744-1.308 5.127-3.21 7.083-1.45 1.338-3.117 2.336-5.08 2.641l.01.463q.017.85.027 1.703.005.367.014.736.011.53.015 1.06l.011.643c-.078.552-.078.552-.33.964-.648.41-1.229.374-1.982.366l-.455.002q-.474 0-.95-.003-.726-.004-1.453.004l-.924-.003-.438.005c-.633-.01-1.003-.028-1.545-.375-.332-.54-.33-.897-.318-1.528l.007-.652.017-.678.01-.686q.012-.839.033-1.677l-.467.011q-.867.017-1.734.027-.373.005-.747.014c-1.617.038-2.857.047-4.14-1.077l-.281-.34-.289-.337c-.77-1.117-.708-2.315-.592-3.626.289-1.145 1.111-1.923 2.063-2.578.663-.318 1.193-.388 1.926-.39l.642-.006h.34q.53-.002 1.063-.007 1.51-.014 3.02-.02.927-.003 1.852-.014.52-.004 1.04-.003c1.173-.013 2.29-.037 3.35-.591.79-.81.921-1.387.909-2.485-.071-.642-.308-.994-.736-1.469-.858-.637-1.689-.706-2.733-.717-3.782-.07-6.77-.565-9.642-3.236-2.27-2.36-3.184-5.226-3.166-8.445.085-3.14 1.494-5.763 3.74-7.927 1.33-1.135 2.85-1.925 4.582-2.19l-.01-.463q-.018-.851-.028-1.702-.005-.368-.014-.737a69 69 0 0 1-.015-1.06l-.011-.643c.078-.551.078-.551.33-.964.649-.41 1.23-.373 1.982-.366m.515 2.841-.013 1.072-.023 1.03q-.007.356-.01.714-.007.514-.021 1.028l-.011.624c-.094.516-.094.516-.413.835-.465.249-.922.382-1.432.52-2.174.647-3.904 1.819-5.113 3.78-1.107 2.069-1.402 4.216-.773 6.5.8 2.294 2.242 4.023 4.425 5.113 1.45.607 2.827.771 4.382.817l.546.017q.538.015 1.077.018c1.65.036 3.082.451 4.254 1.65 1.18 1.589 1.404 3.225 1.203 5.157-.33 1.398-1.02 2.432-2.224 3.223-.909.56-1.775.773-2.84.777l-.657.005h-.347q-.541.002-1.084.008-1.54.013-3.08.019-.945.004-1.89.014-.357.003-.716.003-.503.001-1.005.007l-.575.003c-.618.076-1.035.262-1.566.582-.244.488-.226.834-.172 1.375.384.49.61.661 1.203.86q.693.029 1.386.035l.834.015q.657.011 1.313.018.634.008 1.269.021l.397.002c.495.011.892.025 1.328.274.261.477.252.883.264 1.425l.019.653.011.682.018.689q.021.842.036 1.685h2.75l.014-1.072.022-1.03q.007-.356.01-.714.007-.513.021-1.028l.011-.624c.094-.516.094-.516.413-.835.465-.249.922-.382 1.432-.52 2.174-.647 3.904-1.818 5.113-3.78 1.108-2.069 1.402-4.216.774-6.5-.8-2.294-2.243-4.023-4.426-5.113-1.45-.607-2.827-.771-4.382-.817l-.546-.017q-.539-.014-1.077-.018c-1.65-.036-3.082-.451-4.254-1.65-1.18-1.589-1.404-3.225-1.203-5.157.33-1.397 1.02-2.432 2.224-3.223.909-.56 1.775-.773 2.84-.777l.657-.005h.347q.541-.002 1.084-.008 1.54-.013 3.08-.018.945-.005 1.89-.015.357-.003.716-.003.503 0 1.005-.007l.575-.003c.618-.076 1.035-.262 1.566-.582.244-.488.226-.834.172-1.375-.383-.489-.61-.661-1.203-.859a40 40 0 0 0-1.386-.036l-.834-.015q-.656-.01-1.313-.018a149 149 0 0 1-1.269-.02l-.397-.003c-.495-.011-.892-.024-1.327-.274-.262-.477-.253-.883-.265-1.424l-.019-.653-.011-.683-.018-.688q-.02-.843-.036-1.686z" fill="#000"/><path d="m56.014-.035.434-.003.907-.003q.678-.004 1.356-.013a27.2 27.2 0 0 1 5.742.57l.492.1q.563.125 1.12.276l.4.107c7.696 2.157 14.147 7.398 18.097 14.298 1.71 3.078 3.436 6.948 3.469 10.514l.006.639.004.688.002.354q.005.93.008 1.862.002.761.01 1.523c.057 5.363.057 5.363-.749 7.795l-.147.497c-.126.416-.264.824-.411 1.233l-.154.432c-.512 1.4-1.15 2.72-1.866 4.025l-.306.562c-2.617 4.634-6.48 8.418-11.037 11.126l-.299.178c-2.444 1.432-5.097 2.422-7.844 3.098l-.449.113c-.855.196-1.537.254-2.408.048-.42-.268-.42-.268-.688-.687-.095-.477-.125-.903 0-1.375.496-.594.889-.8 1.636-.976l.561-.139.596-.142c1.804-.46 3.453-.999 5.113-1.837l.365-.178c1.669-.822 3.177-1.73 4.62-2.916l.285-.232c5.496-4.507 9.133-10.864 9.992-17.969.104-1.052.077-2.118.078-3.175v-.397c-.002-1.95-.07-3.83-.558-5.726l-.093-.367c-1.847-7.156-6.192-13.234-12.528-17.074-5.823-3.398-13.41-4.917-20.036-3.185l-.413.107c-7.1 1.871-13.282 6.195-17.057 12.546-2.237 3.944-3.756 8.43-3.78 13-.012.864-.184 1.437-.578 2.191-.538.27-1.136.292-1.718.172-.384-.234-.384-.234-.688-.687-.1-.607-.089-1.203-.075-1.816l.008-.535c.18-7.442 3.554-14.353 8.66-19.65q.197-.21.398-.43C41.351 3.393 48.947.004 56.014-.035M71.5 65.914l.344-.005c.512.136.716.357 1.031.778.067.519.067.519.043 1.075l-.019.561-.024.427.427-.024.561-.019.556-.024c.519.067.519.067.924.37.297.406.376.578.368 1.072l.005.344c-.136.512-.357.716-.778 1.031-.519.067-.519.067-1.075.043l-.561-.019-.427-.024.024.427.019.561.024.556c-.067.519-.067.519-.37.924-.406.297-.578.376-1.072.368l-.344.005c-.512-.136-.716-.357-1.031-.778-.067-.519-.067-.519-.043-1.075l.019-.561.024-.427-.427.024-.561.019-.556.024c-.519-.067-.519-.067-.924-.37-.297-.406-.376-.578-.368-1.072l-.005-.344c.136-.512.357-.716.778-1.031.519-.067.519-.067 1.075-.043l.561.019.427.024-.024-.427-.019-.561-.024-.556c.067-.519.067-.519.37-.924.406-.297.578-.376 1.072-.368M20.625 15.04q.169-.004.344-.006c.512.136.715.357 1.031.778.067.519.067.519.043 1.075l-.019.561-.024.427.427-.024.561-.019.556-.024c.518.067.518.067.924.37.297.406.376.578.368 1.072l.005.344c-.136.512-.357.715-.779 1.031-.518.067-.518.067-1.074.043l-.561-.019-.427-.024.024.427.019.561.024.556c-.067.518-.067.518-.37.924-.406.297-.578.376-1.072.368l-.344.005c-.512-.136-.715-.357-1.031-.779-.067-.518-.067-.518-.043-1.074l.019-.561.024-.427-.427.024-.561.019-.556.024c-.518-.067-.518-.067-.924-.37-.297-.406-.376-.578-.368-1.072l-.005-.344c.136-.512.357-.715.779-1.031.518-.067.518-.067 1.074-.043l.561.019.427.024-.024-.427-.019-.561-.024-.556c.067-.518.067-.518.37-.924.406-.297.578-.376 1.072-.368" fill="#000"/></symbol><symbol id="arrow" viewBox="0 0 24 24" fill="none"><path d="M12 13v7l8-8-8-8v7H4v2z" fill="currentColor"/></symbol></svg>